<svg aria-hidden="true" style="position: absolute; width: 0; height: 0; overflow: hidden;" version="1.1" xmlns="http://www.w3.org/2000/svg" xmlns:xlink="http://www.w3.org/1999/xlink">
<defs>
<symbol id="icon-cart" viewBox="0 0 33 32">
<path fill="#fff" style="fill: var(--color1, #fff)" d="M24.112 30.667c-0.707 0-1.385-0.281-1.886-0.781s-0.781-1.178-0.781-1.886c0-0.707 0.281-1.385 0.781-1.886s1.178-0.781 1.886-0.781c0.707 0 1.386 0.281 1.886 0.781s0.781 1.178 0.781 1.886-0.281 1.385-0.781 1.886c-0.5 0.5-1.178 0.781-1.886 0.781z"></path>
<path fill="#fff" style="fill: var(--color1, #fff)" d="M3.998 5.333h2.667v8h2.667v-9.333c0-0.354-0.14-0.693-0.391-0.943s-0.589-0.391-0.943-0.391h-4v2.667z"></path>
<path fill="#fff" style="fill: var(--color1, #fff)" d="M27.917 9.333l-2.667 10.667h-5.251v2.667h6.293c0.297 0 0.586-0.099 0.82-0.282s0.401-0.439 0.473-0.727l3.333-13.333c0.049-0.197 0.053-0.402 0.011-0.6s-0.129-0.384-0.253-0.544c-0.125-0.16-0.284-0.289-0.466-0.378s-0.382-0.135-0.585-0.135h-18.293v2.667h16.584z"></path>
<path fill="#fff" style="fill: var(--color1, #fff)" d="M23.333 10.667h-16.667v3.723l1.015 1.72c0.518-0.048 1.039-0.044 1.557 0.012l1.219-2.111 5.462 3.153-1.219 2.112c0.309 0.423 0.573 0.873 0.788 1.342l2.475 0.023 0.021 2.026h2.016l2.667-1.333 4-0.667 2.667-12h-4l-2 2zM16.646 22.177l-0.002-0.215-1.84-0.017c0.025 0.072 0.049 0.144 0.072 0.216l1.771 0.017zM14.079 17.684l0.019-0.032-3.153-1.82-1.017 1.762c-0.916-0.224-1.866-0.244-2.781-0.060l0.148 0.251c0.962-0.219 1.968-0.209 2.935 0.027l1.017-1.762 2.831 1.635z"></path>
<path fill="#fff" style="fill: var(--color1, #fff)" d="M4.18 19.541l-1.054-1.783 3.117-1.758 1.053 1.785c0.962-0.219 1.968-0.209 2.935 0.027l1.017-1.762 3.153 1.82-1.017 1.762c0.697 0.729 1.201 1.597 1.491 2.529l2.072 0.019 0.037 3.576-2.072-0.019c-0.275 0.937-0.769 1.792-1.442 2.498l1.053 1.783-3.116 1.756-1.054-1.783c-0.962 0.218-1.967 0.208-2.934-0.029l-1.018 1.764-3.153-1.82 1.019-1.765c-0.689-0.719-1.2-1.585-1.492-2.527l-2.071-0.021-0.038-3.575 2.071 0.019c0.275-0.936 0.768-1.791 1.442-2.497zM6.997 26.984c0.419 0.263 0.886 0.44 1.373 0.521s0.983 0.066 1.459-0.047 0.923-0.319 1.313-0.608c0.39-0.289 0.716-0.653 0.958-1.072s0.395-0.883 0.45-1.365 0.011-0.972-0.13-1.441c-0.141-0.469-0.375-0.907-0.689-1.287s-0.701-0.697-1.138-0.929c-0.842-0.447-1.82-0.557-2.728-0.307s-1.676 0.84-2.142 1.647-0.593 1.767-0.355 2.678c0.238 0.911 0.822 1.703 1.63 2.209z"></path>
</symbol>
<symbol id="icon-logo" viewBox="0 0 32 32">
<path d="M29.082 0.314h-4.009c-1.237 0-2.24 0.983-2.24 2.195v3.929c0 1.212 1.003 2.195 2.24 2.195h4.009c1.237 0 2.24-0.983 2.24-2.195v-3.929c0-1.212-1.003-2.195-2.24-2.195z"></path>
<path d="M6.73 23.040h-4.318c-1.332 0-2.412 0.983-2.412 2.195v3.929c0 1.213 1.080 2.195 2.412 2.195h4.318c1.332 0 2.412-0.983 2.412-2.195v-3.929c0-1.212-1.080-2.195-2.412-2.195z"></path>
<path d="M6.25 11.582h-4.009c-1.237 0-2.24 0.983-2.24 2.195v3.929c0 1.212 1.003 2.195 2.24 2.195h4.009c1.237 0 2.24-0.983 2.24-2.195v-3.929c0-1.212-1.003-2.195-2.24-2.195z"></path>
<path d="M17.766 22.978h-4.009c-1.237 0-2.24 0.983-2.24 2.195l-0 3.929c0 1.212 1.003 2.195 2.241 2.195h4.009c1.237 0 2.24-0.983 2.24-2.195v-3.929c0-1.212-1.003-2.195-2.24-2.195z"></path>
<path d="M6.25 0.086h-4.009c-1.237 0-2.24 0.983-2.24 2.195v3.929c0 1.212 1.003 2.195 2.24 2.195h4.009c1.237 0 2.24-0.983 2.24-2.195v-3.929c0-1.212-1.003-2.195-2.24-2.195z"></path>
<path d="M18.076 11.697h-4.009c-1.237 0-2.24 0.983-2.24 2.195v3.929c0 1.212 1.003 2.195 2.24 2.195h4.009c1.237 0 2.24-0.983 2.24-2.195v-3.929c0-1.212-1.003-2.195-2.24-2.195z"></path>
<path d="M29.333 22.978h-4.010c-1.237 0-2.24 0.983-2.24 2.195v3.929c0 1.212 1.003 2.195 2.24 2.195h4.009c1.237 0 2.24-0.983 2.24-2.195v-3.929c0-1.212-1.003-2.195-2.24-2.195z"></path>
<path d="M17.591 0.224h-4.009c-1.237 0-2.24 0.983-2.24 2.195v3.929c0 1.212 1.003 2.195 2.24 2.195h4.009c1.237 0 2.24-0.984 2.24-2.196v-3.929c0-1.212-1.003-2.195-2.24-2.195z"></path>
<path d="M29.044 11.926h-4.010c-1.237 0-2.24 0.983-2.24 2.195v3.929c0 1.212 1.003 2.195 2.24 2.195h4.009c1.237 0 2.24-0.983 2.24-2.195v-3.929c0-1.212-1.003-2.195-2.24-2.195z"></path>
</symbol>
</defs>
</svg>
