<svg aria-hidden="true" style="position: absolute; width: 0; height: 0; overflow: hidden;" version="1.1" xmlns="http://www.w3.org/2000/svg" xmlns:xlink="http://www.w3.org/1999/xlink">
<defs>

<symbol id="icon-avia" viewBox="0 0 41 32">
<path fill="#F1F1F2" style="fill: var(--color1, #F1F1F2)" d="M0 0v32h40.678v-32h-40.678z"></path>
<path fill="#F1F1F2" style="fill: var(--color2, #F1F1F2)" d="M25.889 2.603h0.036c0.101-0.42 0.592-0.289 0.94-0.289h2.857c-0.259-0.109-0.66-0.036-0.94-0.036h-2.061c-0.351 0-0.794-0.126-0.832 0.325z"></path>
<path fill="#cc3d35" style="fill: var(--color3, #cc3d35)" d="M25.998 2.386l1.266-0.036h2.35l-0.036 0.325h0.036l0.108-0.362h-2.784c-0.222 0-0.79-0.1-0.94 0.072z"></path>
<path fill="#ef3125" style="fill: var(--color4, #ef3125)" d="M25.419 4.158h2.676l0.994-0.037 0.198-0.469 0.326-1.302h-2.603c-0.245 0-0.788-0.102-0.994 0.043-0.122 0.085-0.155 0.331-0.199 0.464-0.138 0.413-0.36 0.866-0.398 1.302z"></path>
<path fill="#ce3f37" style="fill: var(--color5, #ce3f37)" d="M25.383 4.122c0.15 0.172 0.718 0.072 0.94 0.072h2.784v-0.036h-2.423l-1.302-0.036z"></path>
<path fill="#240000" style="fill: var(--color6, #240000)" d="M25.383 4.194v0.036h3.724l-1.121-0.036h-2.603z"></path>
<path fill="#300" style="fill: var(--color7, #300)" d="M5.279 5.062v0.036h4.339l-1.302-0.036h-3.037zM11.788 5.062v0.036h3.724l-1.121-0.036h-2.603zM19.417 5.062v0.036h3.724l-0.036 0.217h0.036l0.036-0.253h-3.76zM25.058 5.134l1.302-0.036h2.423c-0.25-0.105-0.634-0.036-0.904-0.036h-1.953c-0.211 0-0.724-0.092-0.868 0.072zM30.988 5.062v0.036h3.11c0.294 0 0.931-0.121 1.183 0.037 0.183 0.115 0.27 0.593 0.299 0.794 0.073-0.186-0.078-0.794-0.294-0.856-0.384-0.11-0.933-0.011-1.333-0.011h-2.965z"></path>
<path fill="#bc4541" style="fill: var(--color8, #bc4541)" d="M5.279 5.207h0.036c0.241-0.183 0.824-0.072 1.121-0.072h2.097c0.364 0 0.766-0.048 1.121 0.036-0.092-0.159-0.651-0.072-0.832-0.072h-2.603c-0.192 0-0.896-0.098-0.94 0.108z"></path>
<path fill="#bc453f" style="fill: var(--color9, #bc453f)" d="M11.788 5.207h0.036c0.219-0.166 0.708-0.072 0.976-0.072 0.849 0 1.886-0.16 2.712 0.036-0.087-0.15-0.555-0.072-0.723-0.072h-2.206c-0.179 0-0.753-0.092-0.795 0.108z"></path>
<path fill="#bc4541" style="fill: var(--color8, #bc4541)" d="M19.417 5.207h0.036c0.191-0.144 0.563-0.072 0.795-0.072h2.025c0.24 0 0.635-0.077 0.832 0.072 0.087-0.167-0.532-0.108-0.651-0.108h-2.206c-0.182 0-0.788-0.094-0.832 0.108z"></path>
<path fill="#bc453f" style="fill: var(--color9, #bc453f)" d="M25.021 5.315h0.036c0.161-0.259 0.488-0.181 0.759-0.181h2.097c0.219 0 0.701-0.093 0.832 0.108h0.036v-0.145h-2.857c-0.285 0-0.812-0.124-0.904 0.217z"></path>
<path fill="#bc4541" style="fill: var(--color8, #bc4541)" d="M30.951 5.171l1.482-0.036h2.893c-0.276-0.116-0.713-0.036-1.012-0.036h-2.314c-0.238 0-0.889-0.111-1.049 0.072z"></path>
<path fill="#ef3125" style="fill: var(--color4, #ef3125)" d="M1.772 15.982h3.688l0.398-1.736h2.314c0.216 0 0.682-0.087 0.856 0.058 0.24 0.199 0.264 0.947 0.332 1.244 0.028 0.12 0.033 0.351 0.16 0.412 0.261 0.124 0.786 0.022 1.074 0.022h2.567c-0.038-0.821-0.533-1.749-0.783-2.531-0.586-1.834-1.175-3.669-1.784-5.496-0.221-0.662-0.43-1.327-0.651-1.989-0.071-0.212-0.123-0.609-0.284-0.769-0.172-0.171-0.787-0.063-1.018-0.063h-2.35c-0.253 0-0.731-0.092-0.956 0.031-0.181 0.099-0.237 0.51-0.297 0.692-0.219 0.659-0.447 1.322-0.642 1.989-0.54 1.845-1.185 3.672-1.793 5.496-0.273 0.818-0.757 1.781-0.832 2.64zM11.824 5.134c0.016 0.343 0.181 0.689 0.289 1.012l0.615 1.844c0.611 1.832 1.103 3.77 1.882 5.534 0.242 0.547 0.339 1.166 0.528 1.734 0.064 0.193 0.108 0.506 0.26 0.65 0.182 0.172 0.71 0.073 0.945 0.073h2.242c0.245 0 0.702 0.088 0.92-0.031 0.181-0.099 0.237-0.51 0.297-0.692l0.639-1.916c0.614-1.841 1.206-3.691 1.82-5.532l0.566-1.699c0.104-0.313 0.262-0.644 0.277-0.976h-2.676c-0.238 0-0.787-0.102-0.982 0.048-0.123 0.095-0.144 0.32-0.188 0.459-0.12 0.384-0.233 0.771-0.344 1.157-0.334 1.159-0.671 2.32-1.030 3.471-0.124 0.397-0.184 1.060-0.458 1.374-0.048-0.548-0.307-1.137-0.469-1.663-0.321-1.045-0.635-2.095-0.936-3.146-0.114-0.399-0.238-0.794-0.351-1.193-0.037-0.13-0.065-0.379-0.18-0.464-0.198-0.145-0.752-0.043-0.992-0.043h-2.676zM21.623 15.982h3.652l0.722-2.242 1.785-5.496 0.65-1.989 0.313-1.121h-2.603c-0.25 0-0.783-0.101-0.996 0.037-0.201 0.131-0.248 0.511-0.318 0.722-0.212 0.636-0.411 1.277-0.615 1.916-0.586 1.834-1.186 3.663-1.772 5.496-0.263 0.824-0.78 1.811-0.819 2.676zM27.444 15.982h3.724l0.362-1.736h2.314c0.208 0 0.686-0.088 0.849 0.058 0.238 0.213 0.267 0.938 0.34 1.244 0.028 0.117 0.043 0.352 0.164 0.412 0.245 0.122 0.76 0.022 1.033 0.022h2.603l-0.325-1.157-0.687-2.097-1.737-5.351-0.722-2.242h-3.146c-0.302 0-0.962-0.125-1.219 0.037-0.166 0.104-0.216 0.508-0.275 0.686-0.217 0.65-0.422 1.303-0.639 1.953-0.609 1.828-1.199 3.664-1.796 5.496-0.273 0.838-0.767 1.798-0.844 2.676z"></path>
<path fill="#F1F1F2" style="fill: var(--color1, #F1F1F2)" d="M7.449 7.304c-0.112 1.376-0.82 2.696-0.832 4.086h1.736c-0-0.921-0.371-1.926-0.583-2.82-0.092-0.389-0.113-0.924-0.321-1.266zM33.121 7.34l-0.615 3.146h-0.108l-0.108 0.904h1.772c-0.020-0.942-0.419-1.974-0.627-2.893-0.076-0.336-0.099-0.886-0.313-1.157z"></path>
<path fill="#ab4344" style="fill: var(--color10, #ab4344)" d="M32.832 8.461v0.145h0.036l-0.036-0.145z"></path>
<path fill="#460000" style="fill: var(--color11, #460000)" d="M18.079 9.437v0.145h0.036l-0.036-0.145z"></path>
<path fill="#250000" style="fill: var(--color12, #250000)" d="M32.615 9.546l-0.181 0.94h0.072l0.108-0.94z"></path>
<path fill="#b34538" style="fill: var(--color13, #b34538)" d="M6.653 10.63v0.145h0.036l-0.036-0.145z"></path>
<path fill="#250000" style="fill: var(--color12, #250000)" d="M6.617 10.956l-0.072 0.47h1.88l-0.036-0.217h-0.036v0.181h-1.736v-0.434z"></path>
<path fill="#bd4a43" style="fill: var(--color14, #bd4a43)" d="M32.253 10.992v0.145h0.036l-0.036-0.145z"></path>
<path fill="#250000" style="fill: var(--color12, #250000)" d="M32.253 11.137l-0.036 0.289h1.41c0.148 0 0.432 0.067 0.47-0.108h-0.036l-0.542 0.072h-1.229l-0.036-0.253z"></path>
<path fill="#cd3e36" style="fill: var(--color15, #cd3e36)" d="M32.181 11.281v0.181h1.88v-0.036h-1.844l-0.036-0.145zM6.545 11.426v0.036h1.88l-0.615-0.036h-1.266z"></path>
<path fill="#cf4135" style="fill: var(--color16, #cf4135)" d="M14.536 13.379l0.289 0.976h0.036c-0.025-0.292-0.142-0.746-0.325-0.976z"></path>
<path fill="#ba453e" style="fill: var(--color17, #ba453e)" d="M5.858 14.246v0.036h3.182l-0.976-0.036h-2.206zM31.53 14.246v0.036h3.182l-0.976-0.036h-2.206z"></path>
<path fill="#300" style="fill: var(--color7, #300)" d="M5.858 14.355l1.121-0.036h2.097c-0.215-0.090-0.527-0.036-0.759-0.036h-1.699c-0.194 0-0.625-0.081-0.759 0.072zM31.53 14.283l-0.036 0.289h0.036l0.036-0.253h2.278c0.247 0 0.666-0.081 0.868 0.072 0.064-0.171-0.598-0.108-0.723-0.108h-2.459z"></path>
<path fill="#390000" style="fill: var(--color18, #390000)" d="M5.785 14.608l-0.036 0.289h0.036v-0.289z"></path>
<path fill="#2d0000" style="fill: var(--color19, #2d0000)" d="M21.84 15.006l-0.108 0.47h0.036l0.072-0.47z"></path>
<path fill="#bc4a49" style="fill: var(--color20, #bc4a49)" d="M5.496 15.693v0.181h0.036l-0.036-0.181z"></path>
<path fill="#300" style="fill: var(--color7, #300)" d="M5.532 15.693l-0.036 0.325h-3.76v0.036h3.797v-0.362z"></path>
<path fill="#ba453b" style="fill: var(--color21, #ba453b)" d="M5.46 15.873c-0.136 0.209-0.675 0.108-0.904 0.108-0.882 0-1.962 0.168-2.82-0.036 0.154 0.176 0.749 0.072 0.976 0.072h2.784l-0.036-0.145z"></path>
<path fill="#ba453c" style="fill: var(--color22, #ba453c)" d="M15.367 15.873c0.047 0.248 0.59 0.145 0.795 0.145h2.495c0.189 0 0.86 0.097 0.904-0.108h-0.036c-0.219 0.166-0.708 0.072-0.976 0.072h-2.242c-0.299 0-0.687 0.074-0.94-0.108z"></path>
<path fill="#ba453b" style="fill: var(--color21, #ba453b)" d="M13.162 15.91c-0.225 0.17-0.737 0.072-1.012 0.072h-2.676v0.036h2.857c0.135 0 0.895 0.060 0.832-0.108z"></path>
<path fill="#300" style="fill: var(--color7, #300)" d="M21.55 15.91v0.145h3.652v-0.036h-2.676c-0.281 0-0.761 0.097-0.976-0.108z"></path>
<path fill="#bb443c" style="fill: var(--color23, #bb443c)" d="M21.586 15.91c0.044 0.204 0.682 0.108 0.868 0.108h2.784v-0.036h-2.567c-0.324 0-0.796 0.088-1.085-0.072z"></path>
<path fill="#300" style="fill: var(--color7, #300)" d="M35.11 15.91v0.145h3.724v-0.036h-2.712c-0.288 0-0.792 0.102-1.012-0.108z"></path>
<path fill="#ba453b" style="fill: var(--color21, #ba453b)" d="M38.834 15.91c-0.225 0.17-0.737 0.072-1.012 0.072h-2.676v0.036h2.856c0.135 0 0.895 0.060 0.832-0.108zM27.408 15.946c0.15 0.172 0.718 0.072 0.94 0.072h2.784v-0.036h-2.423l-1.302-0.036z"></path>
<path fill="#300" style="fill: var(--color7, #300)" d="M9.473 16.018v0.036h3.724l-1.121-0.036h-2.603zM15.403 16.018v0.036h4.122l-1.266-0.036h-2.857zM27.408 16.018v0.036h3.652l-1.121-0.036h-2.531z"></path>
<path fill="#00853e" style="fill: var(--color24, #00853e)" d="M1.736 18.802v1.88h37.315v-1.88h-37.315z"></path>
<path fill="#20754b" style="fill: var(--color25, #20754b)" d="M1.736 20.683v0.036l36.339-0.036h-36.339z"></path>
<path fill="#240000" style="fill: var(--color6, #240000)" d="M1.736 21.876v0.036h37.315v6.87h0.036v-6.906h-37.351z"></path>
<path fill="#200" style="fill: var(--color2, #200)" d="M1.699 21.912v6.87h0.036v-6.219l-0.036-0.651z"></path>
<path fill="#cb3e37" style="fill: var(--color26, #cb3e37)" d="M1.736 21.912v6.87h37.315v-6.87h-37.315z"></path>
<path fill="#ef3125" style="fill: var(--color4, #ef3125)" d="M1.772 21.948v6.798h37.243v-6.798h-37.243z"></path>
<path fill="#230000" style="fill: var(--color27, #230000)" d="M1.736 28.782v0.036l36.339-0.036h-36.339z"></path>
</symbol>

<symbol id="icon-claas" viewBox="0 0 32 32">
<path fill="#ee3124" style="fill: var(--color1, #ee3124)" d="M1.48 13.427c-0.213 0.187-0.44 0.84-0.907 2.627-0.587 2.28-0.6 2.4-0.36 2.573 0.173 0.12 0.8 0.173 2.347 0.173 2.36 0 2.28 0.027 2.453-1.053l0.093-0.547h-0.96c-0.52 0-0.947-0.040-0.947-0.107 0-0.053 0.147-0.64 0.307-1.293l0.307-1.2 0.747-0.040c0.733-0.040 0.747-0.040 0.84-0.507 0.040-0.267 0.12-0.56 0.16-0.667 0.053-0.16-0.24-0.187-1.867-0.187-1.64 0-1.973 0.040-2.213 0.227z"></path>
<path fill="#ee3124" style="fill: var(--color1, #ee3124)" d="M6.227 15.587c-0.347 1.32-0.627 2.533-0.627 2.72 0 0.44 0.24 0.493 2.307 0.493 1.907 0 1.813 0.053 2.027-1.12l0.093-0.48h-1.333l1.013-4h-2.867l-0.613 2.387z"></path>
<path fill="#ee3124" style="fill: var(--color1, #ee3124)" d="M11.907 13.36c-0.16 0.080-0.36 0.333-0.427 0.56-0.293 0.92-1.213 4.467-1.213 4.667 0 0.187 0.2 0.213 1.32 0.213h1.307l0.453-1.6h1.173l0.040 0.76 0.040 0.773 2.733 0.080v-5.627l-2.733 0.080-0.040 1.36-0.040 1.373h-0.387c-0.227 0-0.4-0.067-0.4-0.147 0-0.16 0.493-2.133 0.613-2.44 0.067-0.187-0.067-0.213-1.027-0.2-0.613 0-1.253 0.067-1.413 0.147z"></path>
<path fill="#ee3124" style="fill: var(--color1, #ee3124)" d="M19.653 13.333c-0.16 0.067-0.36 0.32-0.427 0.56-0.24 0.747-1.227 4.587-1.227 4.76 0 0.107 0.36 0.147 1.293 0.12l1.293-0.040 0.227-0.733 0.213-0.733 1.24-0.080v1.627l2.733-0.080 0.040-2.773 0.027-2.76h-2.8v2.8h-0.467c-0.253 0-0.467-0.013-0.467-0.040 0-0.013 0.147-0.573 0.333-1.227 0.187-0.667 0.333-1.28 0.333-1.373 0-0.187-1.88-0.213-2.347-0.027z"></path>
<path fill="#ee3124" style="fill: var(--color1, #ee3124)" d="M27.12 13.387c-0.307 0.213-0.827 2.16-0.68 2.533 0.067 0.173 0.293 0.213 1.040 0.213h0.96l-0.093 0.413c-0.040 0.227-0.080 0.467-0.080 0.533 0 0.053-0.52 0.133-1.147 0.147l-1.16 0.040-0.173 0.6c-0.307 1.013-0.453 0.96 2.28 0.907 2.933-0.053 2.827 0.013 3.253-1.747 0.373-1.493 0.333-1.56-1.013-1.56h-1l0.093-0.36c0.147-0.627 0.32-0.72 1.187-0.693 1.12 0.027 1.107 0.027 1.2-0.387 0.053-0.2 0.12-0.467 0.16-0.6 0.067-0.213-0.107-0.227-2.24-0.227-1.787 0-2.373 0.040-2.587 0.187z"></path>
</symbol>
<symbol id="icon-gates" viewBox="0 0 32 32">
<path d="M0 15.98v7.6l9.312 0.004c5.12 0.004 9.336 0.004 9.368 0 0.072-0.008 0.864-0.808 4.8-4.844 0.888-0.912 1.864-1.912 2.168-2.22l0.548-0.56-0.808-0.82c-1.784-1.82-5.328-5.42-5.964-6.072l-0.68-0.688h-18.744v7.6zM12.8 11.080c1.896 0.252 3.664 0.864 4.748 1.636 1.276 0.916 1.992 2.188 1.92 3.416-0.024 0.408-0.16 0.908-0.316 1.156l-0.080 0.132h-1.44l0.028-0.212c0.016-0.112 0.072-0.44 0.128-0.72 0.056-0.284 0.088-0.524 0.072-0.54-0.012-0.016-0.156-0.032-0.316-0.040l-0.288-0.016-0.18 0.276c-0.448 0.672-1.152 1.408-1.548 1.624-0.26 0.144-0.604 0.188-0.74 0.096-0.092-0.060-0.22-0.292-0.18-0.328 0.012-0.012 0.084 0.008 0.164 0.040 0.288 0.12 0.544 0.040 0.896-0.276 0.248-0.224 0.408-0.528 0.44-0.832 0.028-0.28-0.032-0.46-0.208-0.632-0.304-0.292-0.796-0.16-1.244 0.336-0.152 0.168-0.3 0.404-0.468 0.74-0.296 0.608-0.424 0.764-0.612 0.764-0.364 0-0.26-0.396 0.412-1.56l0.196-0.34 0.716-0.040 0.108-0.22c0.060-0.12 0.108-0.232 0.108-0.244 0.004-0.012-0.116-0.036-0.26-0.048-0.148-0.016-0.276-0.036-0.288-0.044-0.008-0.012 0.040-0.12 0.108-0.24 0.068-0.124 0.124-0.24 0.124-0.264 0-0.028-0.104-0.040-0.288-0.032l-0.288 0.012-0.204 0.288-0.2 0.288-0.26 0.004h-0.26l-0.14 0.228c-0.076 0.128-0.144 0.244-0.152 0.26-0.008 0.020 0.096 0.032 0.228 0.032 0.136 0 0.244 0.016 0.244 0.032 0 0.020-0.196 0.332-0.436 0.692-0.596 0.896-1.12 1.452-1.304 1.38-0.128-0.048-0.056-0.22 0.352-0.852 0.244-0.38 0.628-1.052 0.628-1.108 0-0.012-0.12-0.024-0.268-0.024-0.22 0-0.284 0.016-0.36 0.088-0.080 0.076-0.104 0.080-0.132 0.032-0.044-0.072-0.448-0.116-1.088-0.116l-0.472-0.004 0.4-0.612 0.396-0.608-0.336-0.012c-0.304-0.008-0.36 0-0.568 0.104-0.732 0.372-1.984 0.552-2.46 0.356-0.132-0.052-0.124-0.056 0.428-0.188 1.012-0.236 1.816-0.524 2.76-0.98 1.060-0.516 1.536-0.968 1.492-1.424-0.052-0.516-0.584-0.764-1.44-0.676-1.116 0.116-2.504 0.596-3.5 1.216-0.54 0.332-0.78 0.568-0.972 0.952-0.088 0.176-0.16 0.356-0.16 0.396 0 0.14-0.144 0.168-0.668 0.14l-0.488-0.028-0.124 0.248c-0.1 0.196-0.116 0.256-0.072 0.28 0.136 0.092 0.416 0.132 0.92 0.136l0.548 0.004 0.164 0.132c0.264 0.212 0.572 0.352 0.884 0.404 0.424 0.072 1.436 0.028 1.868-0.076 0.184-0.048 0.344-0.084 0.352-0.084 0.012 0-0.048 0.080-0.132 0.176l-0.152 0.172-0.44 0.028c-1.896 0.12-3.828 0.452-5.26 0.9-0.276 0.088-0.392 0.108-0.428 0.076-0.028-0.024-0.092-0.172-0.14-0.328-0.296-0.956 0.148-2.208 1.132-3.184 0.46-0.46 0.972-0.816 1.716-1.196 1.384-0.708 2.696-1.068 4.44-1.22 0.368-0.032 1.796 0.016 2.24 0.076zM11.648 12.604c0.068 0.044 0.024 0.136-0.116 0.256-0.464 0.38-3.004 1.404-3.92 1.576-0.376 0.072-0.452 0.056-0.452-0.080 0-0.24 0.512-0.576 1.632-1.072 0.728-0.32 1.116-0.456 1.668-0.588 0.58-0.136 1.056-0.172 1.188-0.092zM15.512 16.388c0.020 0.112-0.1 0.324-0.3 0.524-0.268 0.272-0.452 0.3-0.452 0.072 0-0.32 0.7-0.872 0.752-0.596zM11.56 16.58c0 0.104-0.304 0.5-0.688 0.896-0.284 0.288-0.36 0.344-0.464 0.344-0.112 0-0.128-0.012-0.128-0.112 0-0.26 0.432-0.764 0.932-1.092 0.236-0.152 0.348-0.164 0.348-0.036zM10.208 16.532c0.056 0.024 0.036 0.068-0.136 0.288-0.108 0.144-0.256 0.368-0.324 0.5-0.112 0.212-0.128 0.28-0.128 0.56 0 0.368 0.072 0.544 0.26 0.64 0.244 0.128 0.52 0.052 0.824-0.228 0.124-0.112 0.196-0.156 0.208-0.12 0.036 0.116 0.276 0.388 0.4 0.46 0.12 0.072 0.152 0.072 0.3 0.028 0.232-0.068 0.504-0.276 0.712-0.544l0.172-0.224 0.056 0.116c0.196 0.388 0.44 0.564 0.704 0.508 0.176-0.036 0.484-0.24 0.644-0.428 0.076-0.088 0.144-0.156 0.152-0.144 0.008 0.008 0.060 0.1 0.12 0.2 0.468 0.82 1.18 0.572 2.472-0.868 0.268-0.296 0.496-0.532 0.504-0.52 0.036 0.036-0.072 0.604-0.132 0.696-0.032 0.048-0.184 0.168-0.332 0.268-0.432 0.276-0.504 0.448-0.284 0.668 0.164 0.164 0.312 0.136 0.688-0.124l0.292-0.196 0.54 0.024 0.54 0.028-0.384 0.38c-1.224 1.22-3.112 2.028-5.372 2.3-2 0.236-3.888 0-5.496-0.684-0.192-0.084-0.396-0.18-0.452-0.212l-0.104-0.064 0.436-0.38c0.764-0.664 1.944-1.924 2.572-2.752 0.144-0.192 0.168-0.208 0.32-0.204 0.088 0 0.192 0.012 0.228 0.028zM8.88 16.64c0 0.052-0.572 0.684-0.996 1.1-0.988 0.972-1.82 1.516-2.592 1.7-0.388 0.092-0.924 0.068-1.156-0.052-0.372-0.192-0.544-0.564-0.44-0.96 0.16-0.628 0.94-1.072 2.468-1.408 0.972-0.212 2.716-0.456 2.716-0.38zM20.352 17.416c0.196 0.1 0.288 0.268 0.288 0.524 0 0.188-0.016 0.224-0.148 0.36-0.2 0.192-0.388 0.232-0.628 0.124-0.232-0.1-0.324-0.244-0.324-0.508 0-0.244 0.092-0.4 0.304-0.504 0.176-0.092 0.324-0.092 0.508 0.004z"></path>
<path d="M19.992 17.452c-0.064 0.008-0.16 0.072-0.236 0.156-0.112 0.132-0.124 0.164-0.104 0.348 0.012 0.16 0.044 0.22 0.144 0.312 0.348 0.312 0.852-0.032 0.72-0.496-0.060-0.228-0.264-0.352-0.524-0.32zM20.288 17.648c0.092 0.084 0.092 0.152-0.008 0.252-0.080 0.080-0.080 0.080 0.004 0.22 0.060 0.104 0.068 0.14 0.028 0.14-0.028 0-0.092-0.072-0.144-0.16-0.108-0.192-0.208-0.18-0.208 0.024 0 0.076-0.016 0.136-0.040 0.136s-0.040-0.14-0.040-0.34v-0.34h0.168c0.096 0 0.196 0.028 0.24 0.068z"></path>
<path d="M19.96 17.76c0 0.084 0.020 0.1 0.12 0.1 0.076 0 0.132-0.024 0.148-0.064 0.028-0.076-0.052-0.136-0.176-0.136-0.072 0-0.092 0.024-0.092 0.1z"></path>
<path fill="#ee3124" style="fill: var(--color1, #ee3124)" d="M20.008 8.42c0.008 0.020 0.352 0.384 0.772 0.808 2.724 2.768 6.532 6.676 6.552 6.724 0.008 0.020-1.476 1.56-3.192 3.308-1.884 1.92-3.888 3.984-4.016 4.124l-0.124 0.148 0.488 0.024c0.272 0.012 1.324 0.028 2.344 0.036l1.852 0.012 1.108-1.164c0.608-0.636 1.332-1.396 1.608-1.68 0.276-0.288 0.708-0.736 0.96-1s0.672-0.704 0.936-0.98c0.528-0.552 1.064-1.112 1.704-1.78 0.228-0.244 0.552-0.58 0.716-0.748l0.296-0.308-1.036-1.072c-0.568-0.588-1.352-1.396-1.736-1.792s-1.204-1.244-1.82-1.88c-0.612-0.64-1.336-1.384-1.604-1.66-0.264-0.276-0.624-0.648-0.796-0.832l-0.312-0.328h-2.356c-1.512 0-2.352 0.012-2.344 0.040z"></path>
</symbol>
<symbol id="icon-ina" viewBox="0 0 32 32">
<path fill="#08954c" style="fill: var(--color3, #08954c)" d="M16 32l-16-16 16-16 16 16-16 16z"></path>
<path fill="#fff" style="fill: var(--color4, #fff)" d="M13.627 5.117v1.261h1.421v3.856h-1.421v1.218h4.465v-1.218h-1.508v-3.856h1.508v-1.261h-4.465zM6.553 12.351v1.29h1.464v3.827h-1.42v1.247h4.335v-1.247h-1.421v-3.827h1.508v-1.29h-4.465zM11.714 12.351v1.305h0.681v3.812h-0.681v1.261h2.885v-1.261h-0.609v-2.551l2.435 3.813h1.711v-5.074h0.565v-1.304h-2.841v1.305h0.609v2.508l-2.436-3.813h-2.319zM20.078 12.351v1.247h0.522l-1.218 3.87h-0.638v1.261h2.841v-1.261h-0.652l0.246-0.696h2.073l0.232 0.696h-0.652v1.261h2.812v-1.261h-0.652l-1.131-3.827h0.522v-1.29h-4.306zM22.268 13.598l0.652 2.088h-1.377l0.725-2.088zM13.656 19.585v1.334h0.522l-1.218 3.856h-0.638v1.218h2.841v-1.261h-0.609l0.246-0.682h2.073l0.246 0.682h-0.652v1.261h2.798v-1.218h-0.652l-1.174-3.856h0.565v-1.334h-4.349zM15.86 20.876l0.653 2.073h-1.349l0.696-2.073z"></path>
</symbol>

<symbol id="icon-kuhn" viewBox="0 0 59 32">
<path fill="#F1F1F2" style="fill: var(--color1, #F1F1F2)" d="M0 0v32h58.645v-32h-58.645z"></path>
<path fill="#a4a4a4" style="fill: var(--color2, #a4a4a4)" d="M28.94 1.275v0.127h0.637l-0.637-0.127z"></path>
<path fill="#2f2f2f" style="fill: var(--color3, #2f2f2f)" d="M27.538 2.167c0.584-0.104 1.194-0.612 1.785-0.547 2.001 0.219 4.454 2.148 6.247 3.041 5.044 2.512 10.241 4.833 15.171 7.56 1.661 0.919 3.406 1.699 5.1 2.557 0.463 0.234 1.493 0.62 1.412 1.285-0.058 0.481-0.653 0.787-1.030 0.987-1.049 0.556-2.126 1.064-3.187 1.595-2.928 1.464-5.885 2.875-8.797 4.368-1.708 0.875-3.508 2.080-5.355 2.612 0.746 0.455 1.983-0.514 2.677-0.861l13.769-6.884c0.688-0.344 2.049-0.725 2.254-1.563 0.156-0.638-0.209-1.105-0.726-1.416-1.309-0.789-2.815-1.474-4.205-2.112-5.724-2.628-11.595-5.435-17.084-8.527-1.699-0.957-3.85-2.303-5.737-2.788-0.788-0.203-1.832-0.013-2.295 0.694z"></path>
<path fill="#737375" style="fill: var(--color4, #737375)" d="M28.94 1.53v0.127h0.637l-0.637-0.127z"></path>
<path fill="#fff" style="fill: var(--color1, #fff)" d="M7.267 12.621l3.187-0.637v0.127l-0.765 0.255v0.127c1.645-0.293 3.354-1.518 4.845-2.263l9.817-4.908c1.334-0.667 3.354-2.219 4.845-2.314 0.561-0.036 1.175 0.415 1.657 0.657l12.877 6.437c1.416 0.708 3.027 1.857 4.59 2.136v-0.127l-0.637-0.255v-0.127l0.637-0.127h0.892l1.912 0.892c-1.33-1.344-4.020-2.177-5.737-2.972-3.387-1.567-6.776-3.305-10.072-5.061-1.633-0.87-4.237-2.802-6.12-2.793-1.652 0.008-3.611 1.707-5.1 2.357-3.87 1.69-7.528 3.876-11.347 5.679-1.6 0.755-4.332 1.575-5.482 2.917z"></path>
<path fill="#545454" style="fill: var(--color5, #545454)" d="M19.123 6.12v0.128c0.858 0.111 1.667-0.563 2.422-0.92 1.949-0.923 4.457-1.782 6.12-3.159l-2.55 0.988-5.992 2.964z"></path>
<path fill="#9d9ea2" style="fill: var(--color6, #9d9ea2)" d="M28.94 2.932v0.127h0.637l-0.637-0.127z"></path>
<path fill="#414546" style="fill: var(--color7, #414546)" d="M12.239 11.347v0.127c1.455-0.419 2.854-1.332 4.207-2.008l8.032-4.015c1.249-0.624 3.434-2.299 4.845-2.223 1.393 0.076 3.221 1.475 4.462 2.095l7.522 3.76c1.272 0.636 2.584 1.487 3.952 1.881-0.945-0.955-2.626-1.472-3.825-2.071l-8.159-4.080c-1.186-0.593-2.84-1.855-4.207-1.74-1.72 0.146-3.819 1.737-5.355 2.504-3.806 1.903-7.799 3.624-11.474 5.769z"></path>
<path fill="#545559" style="fill: var(--color8, #545559)" d="M10.454 12.239v0.127c1.007-0.289 2.241-0.41 3.187-0.771 3.449-1.315 6.75-3.411 10.072-5.031 1.504-0.734 3.911-2.658 5.61-2.64 0.623 0.007 1.375 0.575 1.912 0.861 1.296 0.692 2.635 1.324 3.952 1.975 4.361 2.154 8.505 4.4 13.131 5.733-1.086-1.098-2.864-1.402-4.207-2.071-3.402-1.695-6.799-3.4-10.199-5.1-1.252-0.626-3.415-2.282-4.845-2.107-1.926 0.237-4.259 2.005-5.992 2.872-4.136 2.068-8.652 3.834-12.621 6.151z"></path>
<path fill="#740a0c" style="fill: var(--color9, #740a0c)" d="M28.813 3.952v0.128c2.309 0.107 4.251 2.322 6.502 2.805-1.151-1.069-3.066-1.65-4.462-2.368-0.687-0.353-1.252-0.733-2.040-0.564z"></path>
<path fill="#ee2d24" style="fill: var(--color10, #ee2d24)" d="M14.151 11.474v0.127l1.657 0.892c0.958-1.826 3.064-0.618 4.335-0.127-0.368 1.277-1.879 2.775-1.85 4.080 0.037 1.639 2.019 2.746 2.487 4.207-0.899 0.28-2.675 0.597-3.533 0.072-0.617-0.377-0.86-1.13-1.566-1.347l-0.382 1.785c3.333 1.055 6.691 3.241 9.817 4.827 1.154 0.586 2.764 1.818 4.080 1.889 1.336 0.073 3.287-1.389 4.462-1.968 3.599-1.774 7.132-3.843 10.837-5.386v-0.128c-1.029-0.159-1.309-1.181-2.040-1.785 0 0.565 0.185 1.538-0.204 1.999-0.829 0.984-3.163 0.214-3.544-0.852-0.556-1.557-0.077-4.083-0.077-5.737 0-0.592-0.172-1.518 0.204-2.021 0.321-0.43 0.845-0.4 1.325-0.401 1.851-0.004 2.331 0.965 3.315 2.422h0.127c0-1.008-0.303-2.252 1.020-2.295-0.941-0.88-2.542-1.366-3.697-1.944l-7.904-3.952c-1.1-0.55-2.805-1.869-4.068-1.735-1.346 0.144-3.002 1.511-4.219 2.109-3.535 1.737-7.029 3.569-10.582 5.266z"></path>
<path fill="#5d1916" style="fill: var(--color11, #5d1916)" d="M26.518 5.1v0.128l2.040-0.892c-0.652-0.179-1.485 0.441-2.040 0.765z"></path>
<path fill="#5e1b13" style="fill: var(--color12, #5e1b13)" d="M20.398 8.159v0.127l6.12-2.932-1.912 0.685-4.207 2.12z"></path>
<path fill="#494949" style="fill: var(--color13, #494949)" d="M13.004 9.179v0.127c1.821 0.16 4.137-1.961 5.865-2.55-0.591-0.36-1.231 0.137-1.785 0.414-1.35 0.675-2.686 1.428-4.080 2.008z"></path>
<path fill="#73110e" style="fill: var(--color14, #73110e)" d="M35.315 6.884v0.128l3.952 1.912c-0.757-0.869-2.818-1.835-3.952-2.040z"></path>
<path fill="#5d1a14" style="fill: var(--color15, #5d1a14)" d="M17.849 9.434v0.127l2.55-1.147c-0.772-0.212-1.875 0.666-2.55 1.020z"></path>
<path fill="#6e1312" style="fill: var(--color16, #6e1312)" d="M39.267 8.924v0.127l4.717 2.167c-1.098-0.919-3.293-2.116-4.717-2.295z"></path>
<path fill="#2b2b2b" style="fill: var(--color17, #2b2b2b)" d="M11.984 9.944l1.275-0.51c-0.503-0.174-0.992 0.079-1.275 0.51z"></path>
<path fill="#611b11" style="fill: var(--color18, #611b11)" d="M13.514 11.602v0.127l4.335-2.040c-1.134-0.275-3.305 1.41-4.335 1.912z"></path>
<path fill="#494949" style="fill: var(--color13, #494949)" d="M9.944 10.709v0.127c0.763 0.082 1.593-0.412 2.167-0.892l-2.167 0.765z"></path>
<path fill="#404040" style="fill: var(--color19, #404040)" d="M1.912 16.956c-0.31-0.341-0.855-0.756-0.553-1.263 0.417-0.701 1.638-1.056 2.338-1.397 1.944-0.946 3.911-2.351 5.992-2.95-0.664-0.405-1.553 0.294-2.167 0.606-1.855 0.943-4.758 1.77-6.228 3.245-0.66 0.662-0.391 1.817 0.619 1.758z"></path>
<path fill="#661208" style="fill: var(--color20, #661208)" d="M43.984 11.219v0.127l0.892 0.255-0.892-0.382z"></path>
<path fill="#b2312b" style="fill: var(--color21, #b2312b)" d="M13.896 11.602v0.127h0.892l-0.892-0.127z"></path>
<path fill="#b02c27" style="fill: var(--color22, #b02c27)" d="M16.319 11.602v0.127h3.060l-3.060-0.127z"></path>
<path fill="#b22c23" style="fill: var(--color23, #b22c23)" d="M20.653 11.602v0.127h2.805l-2.805-0.127z"></path>
<path fill="#b02c27" style="fill: var(--color22, #b02c27)" d="M25.371 11.602v0.127h2.805l-2.805-0.127z"></path>
<path fill="#b12c25" style="fill: var(--color24, #b12c25)" d="M29.833 11.602v0.127h2.805l-2.805-0.127z"></path>
<path fill="#b12c27" style="fill: var(--color25, #b12c27)" d="M34.55 11.602v0.127h2.932l-2.932-0.127z"></path>
<path fill="#b42a27" style="fill: var(--color26, #b42a27)" d="M39.012 11.602v0.127h2.805l-2.805-0.127z"></path>
<path fill="#1a1915" style="fill: var(--color27, #1a1915)" d="M43.729 11.729c0 0.98-0.371 2.358 0.127 3.187h0.127v-3.060h2.677l-2.932-0.127z"></path>
<path fill="#dedee0" style="fill: var(--color28, #dedee0)" d="M48.191 11.602l-0.51 0.127v0.127l0.637 0.255-0.127 0.255 3.57 1.53v-0.127l-0.255-0.127c1.198-0.294 1.81 0.31 2.932 0.51v-0.127l-5.227-2.422h-1.020z"></path>
<path fill="#000706" style="fill: var(--color29, #000706)" d="M11.729 20.271c0.704 0 2.696 0.413 3.184-0.204 0.374-0.473 0.131-1.764 0.131-2.345l0.382 0.255-0.382-0.765h-0.127c0 0.661 0.246 1.944-0.131 2.509-0.355 0.532-2.458 0.504-2.724-0.106-0.239-0.548-0.077-1.432-0.077-2.021 0-1.571-0.029-3.146 0.001-4.717 0.021-1.094 1.969-1.574 2.727-0.816 0.493 0.493 0.204 2.072 0.204 2.728h0.127l1.275-2.805h-0.128l-1.020 2.167c-0.179-0.607 0.129-1.729-0.259-2.218-0.328-0.414-2.738-0.399-2.979 0.091-0.308 0.625-0.077 1.821-0.077 2.509 0 1.916-0.112 3.83-0.127 5.737z"></path>
<path fill="#28150e" style="fill: var(--color30, #28150e)" d="M15.044 14.151h0.127l1.020-2.167c0.989-0.016 2.535-0.541 3.315 0.255 0.178-0.791-2.27-0.55-2.804-0.502-0.98 0.086-1.551 1.56-1.658 2.415z"></path>
<path fill="#280c0b" style="fill: var(--color31, #280c0b)" d="M27.028 20.271v-0.128c-1.313 0-4.398 0.564-5.428-0.31-1.606-1.363-1.075-3.79-1.075-5.682 0-0.534-0.212-1.665 0.204-2.073 0.532-0.521 2.157-0.222 2.855-0.222-0.518-0.217-2.672-0.409-3.056 0.077-0.312 0.395-0.131 1.36-0.131 1.835 0 1.589-0.588 4.665 0.484 5.953 0.513 0.617 1.209 0.549 1.938 0.549h4.207z"></path>
<path fill="#2e0100" style="fill: var(--color32, #2e0100)" d="M25.116 17.211h0.128c0-1.357-0.431-3.579 0.077-4.837 0.277-0.687 2.411-0.808 2.906-0.313 0.416 0.416 0.204 1.55 0.204 2.090 0 2.133 0.094 3.796-0.765 5.737 1.562-0.922 0.892-4.431 0.892-5.992 0-0.501 0.197-1.549-0.131-1.963-0.319-0.403-2.861-0.403-3.18 0-0.387 0.489-0.131 1.873-0.131 2.473v2.805z"></path>
<path fill="#1e1415" style="fill: var(--color33, #1e1415)" d="M32.892 17.594h1.402c0 0.606-0.258 1.982 0.131 2.473 0.421 0.532 2.419 0.204 3.056 0.204v-0.255l-2.728-0.204-0.204-2.6h-1.785v2.805c-0.698 0-2.323 0.299-2.855-0.222-0.367-0.359-0.204-1.225-0.204-1.69v-4.335c0-0.465-0.163-1.331 0.204-1.69 0.532-0.521 2.157-0.222 2.855-0.222-0.369-0.155-0.748-0.127-1.147-0.127-0.476-0-1.441-0.181-1.835 0.131-0.321 0.255-0.204 0.914-0.204 1.271v3.697c0 0.745-0.342 2.64 0.131 3.238 0.315 0.398 2.738 0.398 3.053 0 0.389-0.491 0.131-1.867 0.131-2.473z"></path>
<path fill="#0d0000" style="fill: var(--color34, #0d0000)" d="M34.422 11.729v2.932h0.127l0.204-2.6 2.728-0.204-3.060-0.127z"></path>
<path fill="#2c0000" style="fill: var(--color35, #2c0000)" d="M38.884 11.729v0.127l2.665 0.077 1.797 2.218c0.064-0.44-0.226-0.79-0.474-1.147-1.086-1.559-2.236-1.275-3.988-1.275z"></path>
<path fill="#e1e2e4" style="fill: var(--color36, #e1e2e4)" d="M4.462 14.024c1.122-0.323 1.723-0.8 2.932-0.637v0.255l-0.51 0.127v0.127l2.932-1.275-0.127-0.255 0.765-0.255c-1.385-0.791-5.047 0.81-5.992 1.912z"></path>
<path fill="#838182" style="fill: var(--color37, #838182)" d="M11.474 11.857l-2.932 1.53 0.637-0.127-0.255 0.382c0.829-0.14 3.038-0.578 2.55-1.785z"></path>
<path fill="#240f0c" style="fill: var(--color38, #240f0c)" d="M11.729 11.857l-0.255 0.892c0.337 0.444 0.255 0.988 0.255 1.53 0 1.246 0.503 3.971-0.255 4.972v0.128c0.619-0.133 0.382-1.136 0.382-1.657v-4.080c0-0.542 0.139-1.322-0.127-1.785z"></path>
<path fill="#bdc6c5" style="fill: var(--color39, #bdc6c5)" d="M12.112 11.857v0.127h2.677l-2.677-0.127z"></path>
<path fill="#bcc0bf" style="fill: var(--color40, #bcc0bf)" d="M16.574 11.857v0.127h2.805l-2.805-0.127z"></path>
<path fill="#b9c2bf" style="fill: var(--color41, #b9c2bf)" d="M20.781 11.857v0.127h2.677l-2.677-0.127z"></path>
<path fill="#291612" style="fill: var(--color42, #291612)" d="M23.586 11.857v5.355h0.128c0-1.524 0.46-3.954-0.128-5.355z"></path>
<path fill="#bebfc1" style="fill: var(--color43, #bebfc1)" d="M25.498 11.857v0.127h2.805l-2.805-0.127z"></path>
<path fill="#bbc1bf" style="fill: var(--color44, #bbc1bf)" d="M29.96 11.857v0.127h2.677l-2.677-0.127z"></path>
<path fill="#311c19" style="fill: var(--color45, #311c19)" d="M32.765 11.857v2.805h1.657v-0.127l-1.234-0.131-0.423-2.546z"></path>
<path fill="#390c09" style="fill: var(--color46, #390c09)" d="M34.295 11.857v2.55h0.127l-0.127-2.55z"></path>
<path fill="#bbc1bf" style="fill: var(--color44, #bbc1bf)" d="M34.677 11.857v0.127h2.805l-2.805-0.127z"></path>
<path fill="#3e3634" style="fill: var(--color47, #3e3634)" d="M37.482 11.857v8.032h0.127v-5.482l-0.127-2.55z"></path>
<path fill="#280c0b" style="fill: var(--color31, #280c0b)" d="M38.757 11.857v5.737c0 0.656-0.217 1.785 0.077 2.382 0.241 0.49 2.652 0.505 2.979 0.091 0.359-0.454 0.131-1.662 0.131-2.218h0.127c0.589 1.24 1.406 1.988 2.422 2.805h0.127l0.382-0.51c-1.428-0.017-2.412-2.050-3.060-3.187h-0.127c0 0.715 0.276 2.155-0.131 2.764-0.358 0.537-2.448 0.496-2.724-0.116-0.229-0.509-0.077-1.335-0.077-1.883 0-1.656 0.511-4.343-0.127-5.865z"></path>
<path fill="#000405" style="fill: var(--color48, #000405)" d="M38.884 11.857v8.032h0.127v-5.482l-0.127-2.55z"></path>
<path fill="#bcc0bf" style="fill: var(--color40, #bcc0bf)" d="M39.139 11.857v0.127h2.677l-2.677-0.127z"></path>
<path fill="#48130f" style="fill: var(--color49, #48130f)" d="M43.602 11.857v2.167h0.127l-0.127-2.167z"></path>
<path fill="#bebebe" style="fill: var(--color50, #bebebe)" d="M43.984 11.857v0.127h2.677l-2.677-0.127z"></path>
<path fill="#4c0200" style="fill: var(--color51, #4c0200)" d="M46.661 11.857l0.127 7.649 5.61-2.805v-0.128l-5.482 2.677v-5.227l-0.255-2.167z"></path>
<path fill="#8e898f" style="fill: var(--color52, #8e898f)" d="M46.916 11.857c0.035 1.048 0.961 1.251 1.785 1.668 1.73 0.875 3.274 1.737 5.227 1.774v-0.127l-7.012-3.315z"></path>
<path fill="#b6b6b6" style="fill: var(--color53, #b6b6b6)" d="M11.984 11.984v7.904h0.127v-5.355l-0.127-2.55z"></path>
<path fill="#fff" style="fill: var(--color1, #fff)" d="M12.112 11.984v7.904h2.677v-2.805l2.063 2.674 3.036 0.131-2.229-3.952 1.719-3.952-2.883 0.131-1.707 2.801v-2.932h-2.677z"></path>
<path fill="#c0bec1" style="fill: var(--color54, #c0bec1)" d="M14.789 11.984c0 0.729-0.314 2.435 0.255 2.932l-0.255-2.932z"></path>
<path fill="#b13720" style="fill: var(--color55, #b13720)" d="M15.044 11.984v1.657h0.127c0.338-0.698 0.546-1.122-0.127-1.657z"></path>
<path fill="#91211d" style="fill: var(--color56, #91211d)" d="M20.271 11.984v6.884h0.128v-4.59l-0.128-2.295z"></path>
<path fill="#000304" style="fill: var(--color57, #000304)" d="M20.526 11.984v6.757h0.128v-4.59l-0.128-2.167z"></path>
<path fill="#727377" style="fill: var(--color58, #727377)" d="M20.653 11.984v6.757h0.128v-4.59l-0.128-2.167z"></path>
<path fill="#fff" style="fill: var(--color1, #fff)" d="M20.781 11.984v4.972c0 0.704-0.163 1.666 0.237 2.288 0.797 1.238 4.32 0.681 5.628 0.643 0.55-0.016 1.079-0.155 1.391-0.649 0.405-0.642 0.266-1.559 0.266-2.281v-4.972h-2.805v3.825c0 0.421 0.125 1.123-0.204 1.453-0.423 0.423-1.625 0.305-1.795-0.313-0.354-1.289-0.221-3.673 0.087-4.965h-2.805z"></path>
<path fill="#601005" style="fill: var(--color59, #601005)" d="M23.713 11.984l-0.128 5.355h1.402v-0.128h-1.147c0-1.491 0.448-3.857-0.128-5.227z"></path>
<path fill="#903530" style="fill: var(--color60, #903530)" d="M24.988 11.984v5.227h0.128c0-1.491 0.448-3.857-0.128-5.227z"></path>
<path fill="#585858" style="fill: var(--color61, #585858)" d="M25.371 11.984v5.355h0.128c0-1.524 0.46-3.954-0.128-5.355z"></path>
<path fill="#5a4e52" style="fill: var(--color62, #5a4e52)" d="M28.303 11.984v6.629h0.128v-4.462l-0.128-2.167z"></path>
<path fill="#8e211c" style="fill: var(--color63, #8e211c)" d="M29.45 11.984v8.032h0.128v-5.482l-0.128-2.55z"></path>
<path fill="#000304" style="fill: var(--color57, #000304)" d="M29.705 11.984v7.904h0.128v-5.355l-0.128-2.55z"></path>
<path fill="#909193" style="fill: var(--color64, #909193)" d="M29.833 11.984v7.904h0.128v-5.355l-0.128-2.55z"></path>
<path fill="#fff" style="fill: var(--color1, #fff)" d="M29.96 11.984v7.904h2.805v-2.805h1.912v2.805h2.805v-7.904h-2.805v2.677h-1.912v-2.677h-2.805z"></path>
<path fill="#661406" style="fill: var(--color65, #661406)" d="M32.892 11.984v2.422h0.127l-0.127-2.422z"></path>
<path fill="#963731" style="fill: var(--color66, #963731)" d="M34.167 11.984v2.422h0.127l-0.127-2.422z"></path>
<path fill="#565253" style="fill: var(--color67, #565253)" d="M34.55 11.984v2.677h0.127l-0.127-2.677z"></path>
<path fill="#350a03" style="fill: var(--color68, #350a03)" d="M37.61 11.984l-0.127 8.159h0.127l0.127-5.737-0.127-2.422z"></path>
<path fill="#8f221b" style="fill: var(--color69, #8f221b)" d="M38.629 11.984v8.032h0.127v-5.482l-0.127-2.55z"></path>
<path fill="#86878b" style="fill: var(--color70, #86878b)" d="M39.012 11.984v7.904h0.127v-5.355l-0.127-2.55z"></path>
<path fill="#fff" style="fill: var(--color1, #fff)" d="M39.139 11.984v7.904h2.55v-3.060l2.233 2.929 2.739 0.131v-7.904h-2.677l0.127 3.060-2.307-2.929-2.665-0.131z"></path>
<path fill="#e4e9ec" style="fill: var(--color71, #e4e9ec)" d="M23.458 12.112v5.227h0.128c0-1.491 0.448-3.857-0.128-5.227z"></path>
<path fill="#0a0000" style="fill: var(--color72, #0a0000)" d="M25.243 12.112c0 1.273 0.518 4.079-0.255 5.1v0.128c0.538-0.115 0.382-0.682 0.382-1.147 0-1.064 0.393-3.176-0.128-4.080z"></path>
<path fill="#dedddb" style="fill: var(--color73, #dedddb)" d="M43.984 12.112l-0.127 2.932c0.506-0.442 0.378-2.336 0.127-2.932z"></path>
<path fill="#3f3536" style="fill: var(--color74, #3f3536)" d="M46.661 12.112c0 2.403-0.553 5.604 0.127 7.904h0.127l-0.127-5.355-0.127-2.55z"></path>
<path fill="#310000" style="fill: var(--color75, #310000)" d="M19.378 12.239c-0.539 0.923-1.748 2.613-1.729 3.697 0.018 1.014 1.609 3.071 2.366 3.697l-2.124-3.697 1.487-3.697z"></path>
<path fill="#b02d19" style="fill: var(--color76, #b02d19)" d="M19.506 12.239c-0.578 1.388-2.2 3.162-1.275 4.59h0.128l1.785-4.462-0.637-0.127z"></path>
<path fill="#aa301b" style="fill: var(--color77, #aa301b)" d="M23.841 12.239v4.972h0.51v-3.697c-0-0.557 0.089-1.076-0.51-1.275z"></path>
<path fill="#b22a14" style="fill: var(--color78, #b22a14)" d="M28.558 12.239v4.59c0 0.814 0.108 1.695-0.333 2.42-1.083 1.78-4.888 1.354-6.679 1.022 0.438 0.68 1.18 0.637 1.912 0.637 1.472 0 4.095 0.511 5.149-0.779 0.885-1.083 0.461-3.257 0.461-4.576 0-0.847 0.404-2.947-0.51-3.315z"></path>
<path fill="#ac3016" style="fill: var(--color79, #ac3016)" d="M33.020 12.239v2.167h0.382l-0.127-2.167h-0.255z"></path>
<path fill="#b02913" style="fill: var(--color80, #b02913)" d="M37.737 12.239v5.865c0 0.613 0.188 1.634-0.328 2.090-0.549 0.486-2.037 0.204-2.732 0.204v0.128l0.255 0.382c0.696 0 2.755 0.346 3.184-0.296 0.301-0.451 0.131-1.354 0.131-1.872v-4.717c0-0.636 0.213-1.545-0.51-1.785z"></path>
<path fill="#6d0b02" style="fill: var(--color81, #6d0b02)" d="M46.916 12.621l0.637 0.382v-0.127l-0.637-0.255z"></path>
<path fill="#6c1410" style="fill: var(--color82, #6c1410)" d="M11.729 12.749c-1.679 0.172-3.598 1.519-5.1 2.27-0.391 0.196-1.457 0.652-1.136 1.25 0.211 0.394 0.887 0.594 1.264 0.783l3.315 1.657c0.321 0.161 1.188 0.785 1.526 0.433 0.305-0.317 0.131-1.271 0.131-1.677v-4.717z"></path>
<path fill="#ee2d24" style="fill: var(--color10, #ee2d24)" d="M11.602 19.123v-6.247l-4.59 2.199-1.321 0.975 1.321 0.914 4.59 2.159z"></path>
<path fill="#b62b16" style="fill: var(--color83, #b62b16)" d="M46.916 12.877v6.375l0.637-0.255c-0.395-1.661-0.395-4.331 0-5.992l-0.637-0.127z"></path>
<path fill="#620903" style="fill: var(--color84, #620903)" d="M47.554 13.004v0.127l5.482 2.677-0.637 0.637v0.128c1.33-0.272 0.505-1.013-0.255-1.41-1.419-0.739-3.041-1.77-4.59-2.16z"></path>
<path fill="#bcbdbf" style="fill: var(--color85, #bcbdbf)" d="M1.275 15.936h0.127c0.838-1.068 2.242-0.739 3.442-0.987 0.765-0.158 1.453-0.628 2.167-0.926l-0.128-0.255 0.51-0.127v-0.255c-1.522-0.407-3.371 0.654-4.717 1.344-0.603 0.309-1.199 0.516-1.402 1.206z"></path>
<path fill="#ee2d24" style="fill: var(--color10, #ee2d24)" d="M47.426 13.131v5.737c1.455-0.312 2.882-1.281 4.207-1.944 0.567-0.284 1.201-0.473 1.402-1.116l-5.61-2.677z"></path>
<path fill="#959499" style="fill: var(--color86, #959499)" d="M5.1 15.044l1.020-0.382c0.771 0.752 2.965-0.731 3.697-1.147v-0.127l-0.892 0.255 0.255-0.382c-1.157 0.047-3.379 0.829-4.080 1.785z"></path>
<path fill="#c2c3c5" style="fill: var(--color87, #c2c3c5)" d="M51.761 13.769v0.127h-0.255v0.127l2.040 0.936 3.697 0.849c-0.339-1.171-2.364-1.371-3.315-1.806-0.394-0.181-0.833-0.552-1.275-0.595-0.222-0.022-1.394 0.143-0.892 0.361z"></path>
<path fill="#821913" style="fill: var(--color88, #821913)" d="M33.020 14.406v0.127h1.147l-1.147-0.127z"></path>
<path fill="#abaab0" style="fill: var(--color89, #abaab0)" d="M2.040 16.829v-0.128l-0.51-0.382 0.382-0.128 2.932 0.51-0.255-0.637 0.637 0.382c0.322-0.814 1.007-1.195 1.785-1.53v-0.127l-0.892-0.127c-1.296 0.427-2.833 0.103-4.078 0.638-0.843 0.363-0.912 1.265-0.002 1.529z"></path>
<path fill="#a9aaae" style="fill: var(--color90, #a9aaae)" d="M51.888 14.916v0.127l1.785 1.275h1.147c0.426-0.657 1.588-0.253 2.295-0.382l-0.127 0.637 0.382-0.892c-0.987-0.12-1.57-0.668-2.66-0.636-0.364 0.010-0.722-0.187-0.782 0.254l-2.040-0.382z"></path>
<path fill="#88888a" style="fill: var(--color91, #88888a)" d="M1.147 15.681v0.637h0.127l-0.127-0.637z"></path>
<path fill="#818183" style="fill: var(--color92, #818183)" d="M57.626 15.681v0.637h0.127l-0.127-0.637z"></path>
<path fill="#929294" style="fill: var(--color93, #929294)" d="M0.765 15.809v0.51h0.127l-0.127-0.51z"></path>
<path fill="#ceced0" style="fill: var(--color94, #ceced0)" d="M53.291 15.809c-0.582 1.489-3.235 2.223-4.59 2.901-0.781 0.391-1.625 0.582-1.657 1.561 1.96-0.608 3.904-1.86 5.737-2.787 0.676-0.342 1.672-0.648 1.912-1.42l-0.892 0.255h-0.127l-0.382-0.51z"></path>
<path fill="#999a9e" style="fill: var(--color95, #999a9e)" d="M54.821 15.936l-0.765 0.765v0.128h0.637l0.892 0.255v0.128l-0.892 0.382v0.128c0.991-0.177 2.25-0.709 2.422-1.785h-2.295z"></path>
<path fill="#bdbdbf" style="fill: var(--color96, #bdbdbf)" d="M4.59 16.064l0.255 0.637-0.765-0.382c0.509 0.898 3.479 2.503 4.335 1.657l-0.127-0.255-3.060-1.53v0.255l-0.637-0.382z"></path>
<path fill="#8e8f93" style="fill: var(--color97, #8e8f93)" d="M1.912 16.191l-0.382 0.128 0.51 0.382-0.127 0.255 3.952 1.785v-0.128l-0.765-0.51 0.765-0.128v0.128h-0.255v0.128c0.555 0.133 0.871 0.189 1.275-0.255l-2.932-1.466-2.040-0.318z"></path>
<path fill="#ecedef" style="fill: var(--color98, #ecedef)" d="M39.139 23.713c2.484-0.676 5.368-1.689 7.503-3.197 0.442-0.312 0.434-0.868 0.919-1.164 1.742-1.063 3.711-1.749 5.475-2.779-0.941-0.187-2.592 1.073-3.442 1.498-0.759 0.38-1.715 0.696-2.382 1.224-0.371 0.293-0.331 0.831-0.813 1.026-0.398 0.16-0.858 0.038-1.267 0.181-1.396 0.485-2.757 1.369-4.080 2.032-0.617 0.309-1.527 0.595-1.912 1.179z"></path>
<path fill="#c0b6b5" style="fill: var(--color99, #c0b6b5)" d="M41.689 16.829v3.060h0.127l0.127-3.060h-0.255z"></path>
<path fill="#808185" style="fill: var(--color100, #808185)" d="M51.761 17.849l0.255 0.255-1.020 0.382v0.255l0.127 0.128h1.020v0.128l2.677-1.147-0.127-0.255 0.892-0.382v-0.128l-0.892-0.255-2.932 1.020z"></path>
<path fill="#332f30" style="fill: var(--color101, #332f30)" d="M1.785 16.956c0.575 0.878 2.26 1.353 3.187 1.816l8.159 4.080c0.977 0.488 2.467 1.628 3.57 1.498-0.891-0.738-2.149-1.166-3.187-1.671-2.087-1.016-4.171-2.055-6.247-3.093-1.698-0.849-3.601-2.295-5.482-2.63z"></path>
<path fill="#bec0bd" style="fill: var(--color102, #bec0bd)" d="M14.789 17.084v2.805h0.127l0.127-2.805h-0.255z"></path>
<path fill="#e2e1dc" style="fill: var(--color103, #e2e1dc)" d="M32.765 17.084v0.128h1.912l-1.912-0.128z"></path>
<path fill="#535351" style="fill: var(--color104, #535351)" d="M34.55 17.211v2.677h0.127l-0.127-2.677z"></path>
<path fill="#584547" style="fill: var(--color105, #584547)" d="M23.713 17.339v0.128h1.657l-1.657-0.128z"></path>
<path fill="#671404" style="fill: var(--color106, #671404)" d="M32.892 17.594v2.295h0.127l-0.127-2.295z"></path>
<path fill="#b72c15" style="fill: var(--color107, #b72c15)" d="M33.020 17.594c0 0.719 0.235 1.947-0.31 2.509-0.543 0.56-1.905 0.296-2.622 0.296l0.128 0.51c0.719 0 2.575 0.331 3.11-0.204 0.464-0.464 0.204-1.861 0.204-2.473l0.637-0.128v1.912h0.127v-2.422h-1.275z"></path>
<path fill="#241113" style="fill: var(--color108, #241113)" d="M15.044 17.721c0.406 1.729 1.54 2.55 3.187 2.55 0.712 0 1.763 0.257 1.912-0.637h-0.128c-0.532 0.544-2.511 0.659-3.146 0.178-0.759-0.575-0.973-1.573-1.826-2.090z"></path>
<path fill="#d2d2d4" style="fill: var(--color109, #d2d2d4)" d="M8.159 17.849v0.128l0.255 0.128-0.765 0.128v0.128l4.207 2.040c-0.591-1.379-2.182-2.28-3.697-2.55z"></path>
<path fill="#7a3023" style="fill: var(--color110, #7a3023)" d="M41.944 17.849v2.167h0.127l-0.127-2.167z"></path>
<path fill="#69696b" style="fill: var(--color111, #69696b)" d="M5.1 18.104l0.765 0.51-0.128 0.255c1.192 0.499 2.548 1.792 3.825 1.020l0.127 0.382 1.147-0.255v-0.128l-3.57-1.682-1.657 0.024v-0.128h-0.51z"></path>
<path fill="#696a6c" style="fill: var(--color112, #696a6c)" d="M48.701 19.378v0.128l1.402 0.382-0.382 0.128v0.128l2.55-1.020 0.127-0.382h-1.402v-0.255l1.020-0.382c-0.889-0.308-2.451 0.94-3.315 1.275z"></path>
<path fill="#7e2915" style="fill: var(--color113, #7e2915)" d="M15.044 18.104v2.040h0.127l-0.127-2.040z"></path>
<path fill="#b22b15" style="fill: var(--color114, #b22b15)" d="M42.072 18.104c0 2.312-0.83 2.295-2.932 2.295 0.389 0.634 2.542 0.874 3.11 0.306 0.51-0.511 0.277-2.155-0.178-2.6z"></path>
<path fill="#b42d19" style="fill: var(--color115, #b42d19)" d="M15.171 18.359c0 1.024 0.124 1.954-1.147 2.040v0.128c1.675 0.844 1.137-0.124 1.912-1.147l-0.765-1.020z"></path>
<path fill="#3f3f3f" style="fill: var(--color116, #3f3f3f)" d="M11.602 19.378v0.765h0.127l-0.127-0.765z"></path>
<path fill="#555658" style="fill: var(--color117, #555658)" d="M46.916 20.271v0.128l0.255 0.128c-1.541 0.444-3.029 1.419-4.462 2.136l-8.542 4.27c-1.195 0.597-3.612 2.431-4.961 2.222-1.25-0.194-2.809-1.444-3.964-2.006-3.453-1.681-6.838-3.529-10.327-5.132-1.708-0.785-3.292-2.197-5.227-1.745l-0.127-0.382-0.765 0.382v0.128c4.72 1.965 9.367 4.546 13.896 6.922 1.429 0.75 2.884 1.456 4.335 2.162 0.674 0.328 1.394 0.842 2.167 0.849 1.965 0.016 4.652-2.024 6.374-2.908 4.727-2.426 9.503-5.112 14.406-7.153l-0.255-0.128v-0.128l0.382-0.128c-1.38-0.341-1.887-0.021-3.187 0.382z"></path>
<path fill="#b52d15" style="fill: var(--color118, #b52d15)" d="M20.143 19.633c-0.347 1.194-2.319 0.765-3.315 0.765v0.128c0.962 0.65 2.903 0.572 3.952 0.128l-0.637-1.020z"></path>
<path fill="#060000" style="fill: var(--color119, #060000)" d="M21.546 19.888v0.128c1.404 0.334 3.024 0.128 4.462 0.128 0.573 0 1.279 0.115 1.657-0.382-1.888 0.5-4.187 0.372-6.12 0.128z"></path>
<path fill="#a8a3a7" style="fill: var(--color120, #a8a3a7)" d="M12.112 19.888v0.128h2.677l-2.677-0.128z"></path>
<path fill="#a4a2a5" style="fill: var(--color121, #a4a2a5)" d="M16.829 19.888v0.128h3.060l-3.060-0.128z"></path>
<path fill="#a6a2a1" style="fill: var(--color122, #a6a2a1)" d="M21.928 19.888v0.128h5.227c-1.371-0.575-3.736-0.128-5.227-0.128z"></path>
<path fill="#a5a4a2" style="fill: var(--color123, #a5a4a2)" d="M29.96 19.888v0.128h2.805l-2.805-0.128z"></path>
<path fill="#a6a2a1" style="fill: var(--color122, #a6a2a1)" d="M34.677 19.888v0.128h2.805l-2.805-0.128z"></path>
<path fill="#a6a29f" style="fill: var(--color124, #a6a29f)" d="M39.139 19.888v0.128h2.55l-2.55-0.128z"></path>
<path fill="#a5a5a7" style="fill: var(--color125, #a5a5a7)" d="M43.984 19.888v0.128h2.677l-2.677-0.128z"></path>
<path fill="#010000" style="fill: var(--color126, #010000)" d="M46.661 19.888l-2.677 0.128v0.128c0.464 0.002 2.795 0.458 2.677-0.255z"></path>
<path fill="#60170e" style="fill: var(--color127, #60170e)" d="M27.028 20.143v0.128l0.51-0.128h-0.51z"></path>
<path fill="#555054" style="fill: var(--color128, #555054)" d="M11.857 20.271v0.128h1.657l-1.657-0.128z"></path>
<path fill="#4e261a" style="fill: var(--color129, #4e261a)" d="M13.641 20.398v0.128l0.892 0.255v-0.128l-0.51-0.128v-0.128h-0.382z"></path>
<path fill="#4d221b" style="fill: var(--color130, #4d221b)" d="M16.701 20.271v0.128h3.187l-3.187-0.128z"></path>
<path fill="#4d211e" style="fill: var(--color131, #4d211e)" d="M21.801 20.271v0.128h5.1c-1.34-0.562-3.642-0.128-5.1-0.128z"></path>
<path fill="#4b221c" style="fill: var(--color132, #4b221c)" d="M29.833 20.271v0.128h2.805l-2.805-0.128z"></path>
<path fill="#4e211c" style="fill: var(--color133, #4e211c)" d="M34.55 20.271v0.128h2.932l-2.932-0.128z"></path>
<path fill="#4d221b" style="fill: var(--color130, #4d221b)" d="M39.012 20.271v0.128h2.677l-2.677-0.128z"></path>
<path fill="#565253" style="fill: var(--color67, #565253)" d="M45.004 20.271v0.128h1.657l-1.657-0.128z"></path>
<path fill="#e1e5e4" style="fill: var(--color134, #e1e5e4)" d="M11.857 20.398v0.128c1.884 0.984 4.345 2.544 6.502 2.55v-0.128l-4.59-2.167 0.127-0.255-2.040-0.128z"></path>
<path fill="#fffdff" style="fill: var(--color135, #fffdff)" d="M13.769 20.653v0.128l4.59 2.167v0.128l-3.060-1.020v0.128c3.114 1.906 6.564 3.312 9.817 4.962 1.246 0.632 2.889 1.884 4.335 1.788 0.807-0.054 1.703-0.627 2.422-0.982 1.626-0.802 3.211-1.696 4.845-2.481 1.538-0.739 4.115-1.48 5.227-2.777l-2.805 1.020c1.481-1.485 4.179-2.129 5.992-3.187-1.069-0.178-2.986 1.27-3.952 1.753l-8.287 4.143c-1.001 0.5-2.446 1.605-3.57 1.677-1.212 0.077-3.133-1.395-4.207-1.931l-7.522-3.76c-1.191-0.596-2.508-1.519-3.825-1.753z"></path>
<path fill="#3e3f41" style="fill: var(--color136, #3e3f41)" d="M28.813 29.068v0.128c1.962-0.006 4.013-1.529 5.737-2.391 4.174-2.087 8.315-4.485 12.621-6.279-0.553-0.153-1.169 0.235-1.657 0.489-1.101 0.572-2.218 1.109-3.315 1.686-2.939 1.547-5.979 2.898-8.924 4.427-1.321 0.686-2.947 1.903-4.462 1.94z"></path>
<path fill="#520000" style="fill: var(--color137, #520000)" d="M34.55 25.371v0.128l3.57-1.626 6.374-3.219c-0.838-0.14-2.189 0.847-2.932 1.237-2.291 1.202-4.636 2.461-7.012 3.48z"></path>
<path fill="#631d1b" style="fill: var(--color138, #631d1b)" d="M15.044 21.036v0.128l2.55 1.147v-0.128l-2.55-1.147z"></path>
<path fill="#6f1a1d" style="fill: var(--color139, #6f1a1d)" d="M17.849 22.438v0.128l2.55 1.147v-0.128l-2.55-1.147z"></path>
<path fill="#5b110e" style="fill: var(--color140, #5b110e)" d="M20.908 23.968v0.128l2.040 0.892v-0.128l-2.040-0.892z"></path>
<path fill="#1e1c1d" style="fill: var(--color141, #1e1c1d)" d="M16.574 24.351c0.355 0.543 1.090 0.768 1.657 1.051l8.414 4.207c0.937 0.469 1.842 1.080 2.932 0.975 1.847-0.178 4.083-1.869 5.737-2.695 1.072-0.536 3.164-1.126 3.825-2.136-2.306 0.41-4.939 2.244-7.012 3.336-0.839 0.442-1.952 1.244-2.932 1.228-1.081-0.017-2.488-1.022-3.442-1.505-1.994-1.009-3.993-2.009-5.992-3.009-1.011-0.506-2.065-1.253-3.187-1.453z"></path>
<path fill="#600202" style="fill: var(--color142, #600202)" d="M23.458 25.243v0.128l0.51 0.128v-0.128l-0.51-0.128z"></path>
<path fill="#5e0300" style="fill: var(--color143, #5e0300)" d="M27.283 27.155v0.128c2.603 1.369 4.902-0.277 7.267-1.657-1.437-0.239-3.56 1.757-4.972 2.166-0.771 0.223-1.545-0.503-2.295-0.636z"></path>
<path fill="#621714" style="fill: var(--color144, #621714)" d="M24.478 25.753v0.128l1.785 0.765-1.785-0.892z"></path>
<path fill="#8e6b69" style="fill: var(--color145, #8e6b69)" d="M28.94 28.048v0.128h0.637l-0.637-0.128z"></path>
<path fill="#a1a1a1" style="fill: var(--color146, #a1a1a1)" d="M33.53 28.685v0z"></path>
<path fill="#969696" style="fill: var(--color147, #969696)" d="M33.275 28.813v0z"></path>
<path fill="#d3d4d6" style="fill: var(--color148, #d3d4d6)" d="M28.813 28.94v0.128h0.892l-0.892-0.128z"></path>
<path fill="#969696" style="fill: var(--color147, #969696)" d="M33.020 28.94v0z"></path>
<path fill="#9e9e9e" style="fill: var(--color149, #9e9e9e)" d="M32.765 29.068v0z"></path>
<path fill="#9c9c9e" style="fill: var(--color150, #9c9c9e)" d="M32.51 29.195v0z"></path>
<path fill="#a6a6a8" style="fill: var(--color151, #a6a6a8)" d="M32 29.45v0z"></path>
<path fill="#a2a2a2" style="fill: var(--color152, #a2a2a2)" d="M30.98 29.96v0z"></path>
<path fill="#989697" style="fill: var(--color153, #989697)" d="M30.215 30.343v0z"></path>
<path fill="#9d9b9c" style="fill: var(--color154, #9d9b9c)" d="M29.96 30.47v0z"></path>
<path fill="#717171" style="fill: var(--color155, #717171)" d="M28.813 30.598v0.128h0.892l-0.892-0.128z"></path>
</symbol>








<symbol id="icon-kuhn1" viewBox="0 0 32 32">
<path d="M8.864 8.493c-3.763 1.882-6.912 3.482-6.995 3.558-0.179 0.166-0.186 0.486-0.006 0.678 0.173 0.186 13.901 7.046 14.106 7.046 0.090 0 3.296-1.568 7.136-3.488 7.552-3.776 7.264-3.61 7.104-4.038-0.038-0.096-0.115-0.211-0.179-0.256-0.058-0.051-3.2-1.626-6.97-3.514-5.51-2.746-6.912-3.424-7.104-3.418-0.186 0-1.811 0.787-7.091 3.43zM23.040 8.608c5.152 2.573 6.874 3.462 6.957 3.59 0.198 0.307 0.051 0.442-1.197 1.062-0.614 0.301-1.146 0.557-1.184 0.557-0.032 0 0.038-0.051 0.16-0.122l0.224-0.122-0.448-0.006c-0.435-0.006-0.442-0.006-0.269-0.102 0.096-0.051 0.173-0.102 0.173-0.122 0-0.051-1.421 0.646-6.317 3.098-2.758 1.376-5.082 2.502-5.171 2.502s-2.586-1.21-5.542-2.694c-2.963-1.478-5.427-2.675-5.478-2.656s-0.077 0.013-0.058-0.013c0.019-0.032-0.064-0.102-0.186-0.16-0.269-0.128-0.301-0.090-0.045 0.045 0.166 0.096 0.166 0.096-0.23 0.102-0.256 0-0.39 0.026-0.365 0.064 0.019 0.032 0.026 0.064 0 0.064-0.019 0-0.493-0.23-1.056-0.512-1.126-0.563-1.261-0.691-1.062-0.986 0.154-0.243 13.677-7.008 14.010-7.014 0.192 0 1.594 0.678 7.085 3.424z"></path>
<path d="M10.355 8.589c-2.95 1.485-5.35 2.707-5.338 2.72s0.23-0.077 0.493-0.205c0.301-0.141 0.557-0.224 0.698-0.218 0.122 0.006 0.358-0.051 0.531-0.122 0.166-0.077 0.301-0.122 0.301-0.109 0 0.019-0.659 0.358-1.466 0.762-0.8 0.403-1.51 0.781-1.568 0.838-0.070 0.070-0.083 0.134-0.045 0.211 0.032 0.058 0.755 0.454 1.6 0.877 1.312 0.653 1.542 0.787 1.542 0.909 0 0.243 0.166 0.339 0.582 0.339 0.371 0 0.48 0.051 4.288 1.952 2.15 1.075 3.949 1.952 4 1.952 0.045 0 1.843-0.877 3.994-1.952 3.802-1.901 3.917-1.952 4.282-1.952 0.416 0 0.582-0.096 0.582-0.339 0-0.122 0.243-0.262 1.587-0.941 1.274-0.646 1.581-0.826 1.581-0.928s-0.294-0.282-1.491-0.89c-0.819-0.416-1.478-0.768-1.459-0.787 0.013-0.013 0.122 0.019 0.243 0.083 0.115 0.064 0.32 0.102 0.448 0.096 0.16-0.006 0.371 0.058 0.634 0.186 0.211 0.109 0.403 0.186 0.416 0.173 0.019-0.013-2.362-1.222-5.28-2.694-4.301-2.157-5.35-2.662-5.549-2.662-0.198 0.006-1.357 0.563-5.606 2.701zM8.755 11.072l0.019 0.73 0.397-0.73 0.397-0.736 0.666-0.019c0.371-0.006 0.71 0 0.755 0.013 0.064 0.026-0.045 0.294-0.397 0.998-0.262 0.525-0.48 0.998-0.48 1.050s0.269 0.506 0.602 1.005c0.333 0.506 0.595 0.941 0.576 0.966-0.038 0.064-1.44 0.064-1.536 0-0.038-0.026-0.275-0.358-0.525-0.736l-0.454-0.691-0.038 1.446h-1.408l-0.019-1.952c-0.006-1.075 0-1.99 0.019-2.035 0.019-0.058 0.198-0.077 0.717-0.064l0.691 0.019 0.019 0.736zM13.12 11.712l0.032 1.376h0.896l0.019-1.395 0.013-1.389h1.408v1.741c0 1.882-0.013 1.946-0.339 2.189-0.166 0.122-0.282 0.134-1.408 0.154-1.37 0.026-1.613-0.019-1.862-0.314l-0.166-0.198v-3.578l1.376 0.038 0.032 1.376zM17.715 11.021l0.019 0.691h0.954v-1.408h1.408v4.096h-1.408v-1.408h-0.954l-0.019 0.685-0.019 0.691h-1.408l-0.019-1.952c-0.006-1.075 0-1.99 0.019-2.035 0.019-0.058 0.198-0.077 0.717-0.064l0.691 0.019 0.019 0.685zM22.784 11.085l0.544 0.781 0.032-0.768 0.032-0.762 1.312-0.038-0.013 2.035-0.019 2.035-1.299 0.038-0.538-0.768-0.531-0.768-0.064 1.498h-1.344l-0.019-1.952c-0.006-1.075 0-1.984 0.019-2.029 0.019-0.058 0.218-0.083 0.691-0.083h0.659l0.538 0.781z"></path>
<path d="M9.024 22.752v1.056h3.040c2.995 0 3.040 0 3.040-0.128 0-0.122-0.045-0.128-1.638-0.128h-1.632l0.019-0.179 0.019-0.173 1.619-0.019c1.562-0.013 1.613-0.019 1.613-0.141s-0.045-0.128-1.632-0.128h-1.632v-0.32h1.632c1.587 0 1.632-0.006 1.632-0.128s-0.045-0.128-1.638-0.128h-1.632l0.019-0.179 0.019-0.173 1.619-0.019c1.498-0.013 1.619-0.026 1.6-0.128s-0.237-0.109-3.046-0.128l-3.021-0.013v1.056zM9.408 22.086c0 0.032-0.045 0.058-0.096 0.058-0.096 0-0.128-0.077-0.058-0.147 0.051-0.051 0.154 0.006 0.154 0.090zM9.984 22.086c0 0.032-0.045 0.058-0.096 0.058-0.096 0-0.128-0.077-0.058-0.147 0.051-0.051 0.154 0.006 0.154 0.090zM10.509 22.048c0 0.032-0.032 0.070-0.070 0.083s-0.070-0.026-0.070-0.083c0-0.058 0.032-0.096 0.070-0.083s0.070 0.051 0.070 0.083zM11.072 22.048c0 0.051-0.026 0.096-0.058 0.096-0.083 0-0.141-0.102-0.090-0.154 0.070-0.070 0.147-0.038 0.147 0.058zM11.648 22.048c0 0.051-0.045 0.096-0.096 0.096-0.102 0-0.128-0.077-0.051-0.147 0.070-0.077 0.147-0.051 0.147 0.051zM9.664 22.24c0 0.051-0.026 0.096-0.058 0.096s-0.070-0.045-0.096-0.096c-0.019-0.058 0-0.096 0.058-0.096 0.051 0 0.096 0.045 0.096 0.096zM10.24 22.24c0 0.051-0.045 0.096-0.096 0.096s-0.096-0.045-0.096-0.096c0-0.051 0.045-0.096 0.096-0.096s0.096 0.045 0.096 0.096zM10.816 22.24c0 0.051-0.045 0.096-0.096 0.096s-0.096-0.045-0.096-0.096c0-0.051 0.045-0.096 0.096-0.096s0.096 0.045 0.096 0.096zM11.392 22.24c0 0.051-0.045 0.096-0.096 0.096s-0.096-0.045-0.096-0.096c0-0.051 0.045-0.096 0.096-0.096s0.096 0.045 0.096 0.096zM9.408 22.426c0 0.045-0.045 0.083-0.096 0.083-0.096 0-0.128-0.115-0.058-0.192 0.058-0.058 0.154 0.013 0.154 0.109zM9.933 22.477c-0.096 0.096-0.166 0.026-0.115-0.115 0.032-0.083 0.058-0.096 0.115-0.038s0.058 0.096 0 0.154zM11.648 22.438c0 0.051-0.026 0.090-0.058 0.090-0.070 0-0.141-0.166-0.090-0.218 0.058-0.058 0.147 0.019 0.147 0.128zM10.522 22.432c-0.026 0.051-0.064 0.096-0.090 0.096s-0.064-0.045-0.090-0.096c-0.026-0.064 0.006-0.096 0.090-0.096s0.115 0.032 0.090 0.096zM11.098 22.432c-0.026 0.051-0.064 0.096-0.090 0.096s-0.064-0.045-0.090-0.096c-0.026-0.064 0.006-0.096 0.090-0.096s0.115 0.032 0.090 0.096zM9.683 22.63c-0.026 0.070-0.058 0.077-0.122 0.019-0.109-0.090-0.058-0.192 0.070-0.147 0.045 0.019 0.070 0.077 0.051 0.128zM10.24 22.637c0 0.083-0.019 0.083-0.096 0.019-0.051-0.045-0.077-0.102-0.058-0.134 0.051-0.083 0.154-0.006 0.154 0.115zM10.816 22.598c0 0.032-0.045 0.058-0.096 0.058-0.096 0-0.128-0.077-0.058-0.147 0.051-0.051 0.154 0.006 0.154 0.090zM11.328 22.656c-0.115 0.070-0.154 0.038-0.102-0.102 0.032-0.090 0.058-0.096 0.122-0.032 0.058 0.058 0.058 0.090-0.019 0.134zM9.408 22.79c0 0.032-0.045 0.058-0.096 0.058-0.096 0-0.128-0.077-0.058-0.147 0.051-0.051 0.154 0.006 0.154 0.090zM9.926 22.803c-0.083 0.083-0.166 0.019-0.102-0.077 0.019-0.038 0.070-0.051 0.109-0.032 0.038 0.026 0.038 0.064-0.006 0.109zM10.509 22.797c-0.038 0.038-0.102 0.045-0.141 0.019-0.058-0.038-0.058-0.058 0.006-0.102 0.109-0.064 0.218 0 0.134 0.083zM11.085 22.797c-0.077 0.077-0.224 0.006-0.173-0.077 0.019-0.032 0.083-0.038 0.134-0.019 0.064 0.026 0.077 0.058 0.038 0.096zM11.661 22.797c-0.077 0.077-0.224 0.006-0.173-0.077 0.019-0.032 0.083-0.038 0.134-0.019 0.064 0.026 0.077 0.058 0.038 0.096zM9.696 22.906c0.045 0.077-0.077 0.154-0.16 0.102-0.070-0.045-0.026-0.16 0.064-0.16 0.032 0 0.070 0.026 0.096 0.058zM10.24 22.982c0 0.032-0.045 0.058-0.096 0.058-0.096 0-0.128-0.077-0.058-0.147 0.051-0.051 0.154 0.006 0.154 0.090zM10.816 22.982c0 0.032-0.045 0.058-0.096 0.058-0.096 0-0.128-0.077-0.058-0.147 0.051-0.051 0.154 0.006 0.154 0.090zM11.392 22.982c0 0.032-0.045 0.058-0.096 0.058-0.096 0-0.128-0.077-0.058-0.147 0.051-0.051 0.154 0.006 0.154 0.090zM9.408 23.174c0 0.032-0.045 0.058-0.096 0.058-0.096 0-0.128-0.077-0.058-0.147 0.051-0.051 0.154 0.006 0.154 0.090zM9.984 23.174c0 0.032-0.045 0.058-0.096 0.058-0.096 0-0.128-0.077-0.058-0.147 0.051-0.051 0.154 0.006 0.154 0.090zM10.509 23.136c0 0.032-0.032 0.070-0.070 0.083s-0.070-0.026-0.070-0.083c0-0.058 0.032-0.096 0.070-0.083s0.070 0.051 0.070 0.083zM11.072 23.136c0 0.051-0.026 0.096-0.058 0.096-0.083 0-0.141-0.102-0.090-0.154 0.070-0.070 0.147-0.038 0.147 0.058zM11.648 23.136c0 0.051-0.045 0.096-0.096 0.096-0.102 0-0.128-0.077-0.051-0.147 0.070-0.077 0.147-0.051 0.147 0.051zM9.664 23.328c0 0.051-0.026 0.096-0.058 0.096s-0.070-0.045-0.096-0.096c-0.019-0.058 0-0.096 0.058-0.096 0.051 0 0.096 0.045 0.096 0.096zM10.24 23.328c0 0.051-0.045 0.096-0.096 0.096s-0.096-0.045-0.096-0.096c0-0.051 0.045-0.096 0.096-0.096s0.096 0.045 0.096 0.096zM10.816 23.328c0 0.051-0.045 0.096-0.096 0.096s-0.096-0.045-0.096-0.096c0-0.051 0.045-0.096 0.096-0.096s0.096 0.045 0.096 0.096zM11.392 23.328c0 0.051-0.045 0.096-0.096 0.096s-0.096-0.045-0.096-0.096c0-0.051 0.045-0.096 0.096-0.096s0.096 0.045 0.096 0.096zM9.408 23.514c0 0.045-0.045 0.083-0.096 0.083-0.096 0-0.128-0.115-0.058-0.192 0.058-0.058 0.154 0.013 0.154 0.109zM9.984 23.526c0 0.051-0.045 0.090-0.096 0.090-0.096 0-0.134-0.134-0.058-0.211 0.064-0.058 0.154 0.013 0.154 0.122zM11.648 23.526c0 0.051-0.026 0.090-0.058 0.090-0.070 0-0.141-0.166-0.090-0.218 0.058-0.058 0.147 0.019 0.147 0.128zM10.522 23.52c-0.026 0.051-0.064 0.096-0.090 0.096s-0.064-0.045-0.090-0.096c-0.026-0.064 0.006-0.096 0.090-0.096s0.115 0.032 0.090 0.096zM11.098 23.52c-0.026 0.051-0.064 0.096-0.090 0.096s-0.064-0.045-0.090-0.096c-0.026-0.064 0.006-0.096 0.090-0.096s0.115 0.032 0.090 0.096z"></path>
<path d="M16.864 21.779c-0.019 0.045-0.026 0.928-0.019 1.965l0.019 1.888 1.312 0.038v-3.974h-0.64c-0.461 0-0.653 0.026-0.672 0.083z"></path>
<path d="M21.568 23.68v1.99l1.312-0.038v-3.904l-1.312-0.038v1.99z"></path>
<path d="M19.77 22.675c-0.045 0.096-0.128 0.173-0.192 0.173-0.102 0-0.109 0.038-0.077 0.333l0.038 0.339-0.166-0.147c-0.109-0.102-0.173-0.128-0.205-0.077-0.026 0.045-0.109 0.058-0.198 0.038-0.141-0.038-0.154-0.019-0.154 0.179 0 0.122-0.032 0.23-0.070 0.243s0.077 0.115 0.262 0.23c0.262 0.166 0.326 0.237 0.301 0.339-0.032 0.115-0.013 0.122 0.243 0.083l0.282-0.038 0.026 0.339 0.019 0.346 0.013-0.346 0.013-0.339 0.282 0.038c0.262 0.038 0.282 0.032 0.25-0.083-0.026-0.102 0.038-0.173 0.301-0.339 0.186-0.115 0.301-0.218 0.262-0.23s-0.070-0.122-0.070-0.243c0-0.198-0.013-0.218-0.154-0.179-0.090 0.019-0.173 0.006-0.198-0.038-0.032-0.051-0.096-0.026-0.205 0.077l-0.166 0.147 0.038-0.339c0.032-0.301 0.026-0.333-0.083-0.333-0.070 0-0.128-0.026-0.128-0.051 0-0.032-0.038-0.109-0.090-0.173-0.090-0.122-0.096-0.122-0.173 0.051z"></path>
<path d="M9.024 24.32c0 0.128 0.045 0.128 3.040 0.128s3.040 0 3.040-0.128c0-0.128-0.045-0.128-3.040-0.128s-3.040 0-3.040 0.128z"></path>
<path d="M9.024 24.896c0 0.128 0.045 0.128 3.040 0.128s3.040 0 3.040-0.128c0-0.128-0.045-0.128-3.040-0.128s-3.040 0-3.040 0.128z"></path>
<path d="M9.037 25.517c0.019 0.109 0.218 0.115 3.027 0.115s3.008-0.006 3.027-0.115c0.019-0.102-0.16-0.109-3.027-0.109s-3.046 0.006-3.027 0.109z"></path>
<path d="M7.168 28.48v0.896h0.16c0.16 0 0.16-0.006 0.16-0.595l0.006-0.589 0.282 0.589c0.243 0.525 0.301 0.595 0.442 0.595h0.166v-1.792h-0.16c-0.154 0-0.154 0.013-0.173 0.589l-0.019 0.595-0.282-0.595c-0.237-0.499-0.307-0.589-0.429-0.589h-0.154v0.896z"></path>
<path d="M9.056 27.642c-0.301 0.128-0.384 0.314-0.384 0.838 0 0.442 0.019 0.525 0.154 0.666 0.326 0.346 0.89 0.243 1.030-0.186 0.122-0.371 0.058-0.966-0.134-1.152-0.173-0.173-0.474-0.25-0.666-0.166zM9.536 28.026c0.032 0.070 0.064 0.275 0.064 0.454 0 0.429-0.083 0.576-0.32 0.576-0.23 0-0.32-0.147-0.32-0.538 0-0.442 0.090-0.614 0.314-0.614 0.128 0 0.218 0.045 0.262 0.122z"></path>
<path d="M10.304 28.474v0.902h0.16c0.147 0 0.16-0.019 0.16-0.32 0-0.25 0.019-0.32 0.102-0.32 0.058 0 0.154 0.128 0.237 0.32 0.115 0.275 0.16 0.32 0.314 0.32 0.16 0 0.173-0.013 0.115-0.16-0.032-0.090-0.109-0.25-0.16-0.352-0.096-0.186-0.096-0.205 0.032-0.365 0.16-0.205 0.166-0.538 0.006-0.73-0.096-0.122-0.192-0.154-0.544-0.173l-0.422-0.026v0.902zM11.046 28c0.026 0.051 0.019 0.166 0 0.256-0.032 0.128-0.083 0.16-0.23 0.16-0.179 0-0.192-0.013-0.192-0.256s0.013-0.256 0.192-0.256c0.115 0 0.211 0.038 0.23 0.096z"></path>
<path d="M11.52 27.744c0 0.141 0.026 0.16 0.224 0.16h0.224v1.472h0.32v-1.472h0.224c0.198 0 0.224-0.019 0.224-0.16 0-0.16 0-0.16-0.608-0.16s-0.608 0-0.608 0.16z"></path>
<path d="M13.056 28.48v0.896h0.16c0.154 0 0.16-0.019 0.16-0.384v-0.384h0.576v0.384c0 0.365 0.006 0.384 0.16 0.384h0.16v-1.792h-0.16c-0.154 0-0.16 0.019-0.16 0.352v0.352h-0.576v-0.352c0-0.333-0.006-0.352-0.16-0.352h-0.16v0.896z"></path>
<path d="M15.597 27.629c-0.026 0.045-0.378 1.126-0.525 1.6-0.032 0.128-0.019 0.147 0.128 0.147 0.115 0 0.179-0.045 0.224-0.16 0.051-0.134 0.102-0.16 0.32-0.16s0.269 0.026 0.32 0.16c0.045 0.115 0.109 0.16 0.224 0.16 0.147 0 0.16-0.019 0.122-0.147-0.026-0.077-0.147-0.474-0.275-0.877-0.198-0.614-0.256-0.742-0.371-0.755-0.077-0.013-0.147 0-0.166 0.032zM15.834 28.326c0.026 0.122 0.064 0.269 0.083 0.32 0.026 0.064-0.019 0.090-0.173 0.090s-0.198-0.026-0.173-0.090c0.019-0.051 0.058-0.198 0.083-0.32 0.019-0.128 0.064-0.23 0.090-0.23s0.070 0.102 0.090 0.23z"></path>
<path d="M16.704 28.48v0.896h0.339l-0.045-0.627c-0.045-0.71 0.006-0.691 0.224 0.090 0.205 0.736 0.301 0.723 0.55-0.090l0.198-0.621 0.006 0.621c0.006 0.627 0.006 0.627 0.166 0.627h0.16v-1.798l-0.474 0.038-0.154 0.621c-0.083 0.346-0.173 0.614-0.198 0.595-0.026-0.013-0.115-0.301-0.198-0.634l-0.154-0.614h-0.422v0.896z"></path>
<path d="M18.688 28.48v0.896h0.48c0.467 0 0.48-0.006 0.48-0.16 0-0.147-0.019-0.16-0.32-0.16h-0.32v-0.224c0-0.224 0-0.224 0.288-0.224 0.262 0 0.288-0.013 0.288-0.16s-0.026-0.16-0.288-0.16c-0.275 0-0.288-0.006-0.288-0.192s0.006-0.192 0.32-0.192c0.301 0 0.32-0.013 0.32-0.16 0-0.154-0.013-0.16-0.48-0.16h-0.48v0.896z"></path>
<path d="M19.904 28.474v0.902h0.16c0.147 0 0.16-0.019 0.16-0.32 0-0.25 0.019-0.32 0.102-0.32 0.058 0 0.154 0.128 0.237 0.32 0.115 0.275 0.16 0.32 0.314 0.32 0.16 0 0.173-0.013 0.115-0.16-0.032-0.090-0.109-0.25-0.16-0.352-0.096-0.186-0.096-0.205 0.032-0.365 0.16-0.205 0.166-0.538 0.006-0.73-0.096-0.122-0.192-0.154-0.544-0.173l-0.422-0.026v0.902zM20.646 28c0.026 0.051 0.019 0.166 0 0.256-0.032 0.128-0.083 0.16-0.23 0.16-0.179 0-0.192-0.013-0.192-0.256s0.013-0.256 0.192-0.256c0.115 0 0.211 0.038 0.23 0.096z"></path>
<path d="M21.312 28.48v0.896h0.32v-1.792h-0.32v0.896z"></path>
<path d="M22.266 27.68c-0.205 0.109-0.314 0.39-0.314 0.8 0 0.627 0.282 0.954 0.742 0.87 0.378-0.077 0.659-0.614 0.32-0.614-0.109 0-0.166 0.045-0.192 0.16-0.032 0.128-0.083 0.16-0.23 0.16-0.237 0-0.32-0.147-0.32-0.576s0.083-0.576 0.32-0.576c0.147 0 0.198 0.032 0.23 0.16 0.051 0.205 0.346 0.23 0.346 0.038 0-0.358-0.557-0.621-0.902-0.422z"></path>
<path d="M23.917 27.629c-0.026 0.045-0.378 1.126-0.525 1.6-0.032 0.128-0.019 0.147 0.128 0.147 0.115 0 0.179-0.045 0.224-0.16 0.051-0.134 0.102-0.16 0.32-0.16s0.269 0.026 0.32 0.16c0.045 0.115 0.109 0.16 0.224 0.16 0.147 0 0.16-0.019 0.122-0.147-0.026-0.077-0.147-0.474-0.275-0.877-0.198-0.614-0.256-0.742-0.371-0.755-0.077-0.013-0.147 0-0.166 0.032zM24.154 28.326c0.026 0.122 0.064 0.269 0.083 0.32 0.026 0.064-0.019 0.090-0.173 0.090s-0.198-0.026-0.173-0.090c0.019-0.051 0.058-0.198 0.083-0.32 0.019-0.128 0.064-0.23 0.090-0.23s0.070 0.102 0.090 0.23z"></path>
</symbol>
<symbol id="icon-lemken" viewBox="0 0 32 32">
<path fill="#F1F1F2" style="fill: var(--color4, #F1F1F2)" d="M0 0h32v32h-32v-32z"></path>
<path fill="#00a7e8" style="fill: var(--color5, #00a7e8)" d="M3.031 16.91c0.403 0.424 0.793 0.588 1.38 0.595 0.636 0.007 1.066-0.198 1.483-0.676 0.369-0.431 0.499-0.806 0.471-1.373l0.355-0.205c0.061 0.492 0.014 0.806-0.191 1.257-0.225 0.506-0.471 0.779-0.95 1.059-0.41 0.239-0.697 0.321-1.168 0.321-0.478-0.007-0.772-0.089-1.175-0.335-0.314-0.191-0.478-0.342-0.69-0.642l0.485-0zM2.163 16.117l0.355-0.157c-0.15-0.758 0.15-1.428 0.67-1.886 0.485-0.424 1.325-0.601 2.064-0.26l0.629-0.048c-0.287-0.232-0.485-0.335-0.84-0.437-0.424-0.116-0.69-0.13-1.121-0.034-0.424 0.089-0.676 0.26-1.004 0.499-0.287 0.198-0.724 0.868-0.786 1.36-0.034 0.3-0.055 0.601 0.034 0.963zM30.588 13.691v3.943h-1.243l-1.134-1.688-0.007 1.701h-1.401v-3.922h1.319l1.134 1.578-0.007-1.606 1.339-0.007zM26.4 13.726v1.005h-1.537v0.512h1.544l-0.007 0.875-1.51 0.007-0.007 0.601 1.53-0.007v0.916h-2.952v-3.908h2.938zM23.175 13.732l-1.018 1.913 1.045 1.988h-1.449l-1.059-1.9 1.073-2.002h1.408zM20.599 13.753v3.909h-1.367l0.007-3.915 1.36 0.007zM18.76 17.661h-1.373l0.007-1.852-0.014-0.021c-0.246 0.608-0.984 2.979-0.984 2.979l-1.018-3.013v1.906h-1.346v-3.895h1.694l0.67 1.941 0.683-1.947h1.681v3.902zM13.663 14.709h-1.496v0.526l1.483 0.007 0.014 0.027v0.895h-1.496v0.574l1.496-0.007v0.929h-2.952v-3.874l2.952 0.007v0.915zM8.976 13.746v2.931h1.319v0.964h-2.637v-3.895h1.319z"></path>
<path fill="#00a7e8" style="fill: var(--color5, #00a7e8)" d="M7.158 14.382c0.075 0.403-0.328 0.608-0.567 0.779-0.526 0.383-1.080 0.67-1.667 0.943-0.034 0.027-0.041 0.096 0.014 0.096l0.991 0.068-0.048 0.424s-0.731-0.068-1.107-0.089l-0.055 0.116h-3.307c0.478-0.273 1.059-0.465 1.49-0.827 0.67-0.451 0.758-1.366 1.51-1.708 0.642-0.314 1.428-0.321 2.159-0.232 0.239 0.048 0.54 0.157 0.588 0.43zM6.721 14.327c0.068 0.048 0.096 0.123 0.082 0.212-0.56 0.526-1.264 0.841-1.941 1.196l-0.246 0.096-0.977-0.116c0.15-0.287 0.362-0.588 0.553-0.861 0.526-0.649 1.449-0.601 2.275-0.56l0.253 0.034zM4.487 16.151c0.034 0.068-0.014 0.13-0.021 0.198-0.512 0.020-1.018 0.007-1.612 0.007l0.437-0.308 1.196 0.103z"></path>
</symbol>
<symbol id="icon-skf" viewBox="0 0 32 32">
<path fill="#00a7e8" style="fill: var(--color5, #00a7e8)" d="M1.747 8.938c-0.194 0.072-0.369 0.197-0.481 0.353-0.219 0.3-0.203-0.141-0.203 5.7v5.275h29.906l-0.006-5.275-0.009-5.272-0.087-0.188c-0.106-0.225-0.294-0.428-0.506-0.541l-0.156-0.084-14.172-0.006c-11.731-0.003-14.191 0.003-14.284 0.037zM10.597 11.762c0.072 0.059 0.075 0.075 0.084 0.613 0.012 0.6-0.006 0.703-0.137 0.762-0.084 0.037-1.747 0.050-1.881 0.016-0.106-0.031-0.162-0.169-0.162-0.412 0-0.122-0.016-0.228-0.037-0.25-0.053-0.053-1.247-0.053-1.3 0-0.028 0.028-0.037 0.219-0.037 0.672 0 0.594 0.003 0.634 0.059 0.666 0.041 0.019 0.744 0.031 2.069 0.031 1.825 0 2.013 0.006 2.066 0.053s0.056 0.144 0.056 1.728c0 1.591-0.003 1.681-0.056 1.731-0.053 0.047-0.328 0.050-3.506 0.050-3.159 0-3.453-0.006-3.506-0.053s-0.056-0.122-0.056-1.012v-0.963l0.084-0.066c0.081-0.063 0.106-0.066 1.019-0.056l0.934 0.009 0.059 0.075c0.053 0.066 0.059 0.128 0.059 0.672 0 0.425 0.013 0.613 0.037 0.637 0.053 0.053 2.684 0.053 2.738 0 0.028-0.028 0.037-0.3 0.037-1.031 0-0.947-0.003-0.994-0.059-1.025-0.041-0.019-0.747-0.031-2.075-0.031-2.006 0-2.013 0-2.072-0.066-0.056-0.063-0.059-0.137-0.066-1.331-0.009-1.341 0-1.419 0.138-1.456 0.031-0.009 1.269-0.016 2.747-0.019 2.606-0.003 2.697 0 2.766 0.056zM14.894 11.778c0.034 0.050 0.044 0.241 0.044 1.019 0 0.528 0.009 0.969 0.022 0.981 0.012 0.009 0.494-0.45 1.072-1.028l1.050-1.047h0.984c0.953 0 0.991 0.003 1.072 0.066l0.081 0.063v1.213l-0.081 0.063c-0.081 0.063-0.119 0.066-1.072 0.066h-0.988l-0.334 0.334c-0.188 0.184-0.337 0.347-0.337 0.363 0 0.012 0.309 0.331 0.688 0.709l0.688 0.684 2.038 0.019 0.059 0.075c0.056 0.069 0.059 0.134 0.059 1.003 0 0.841-0.006 0.938-0.053 0.997-0.056 0.066-0.072 0.066-1.447 0.066l-1.387 0.003-1.034-1.034c-0.569-0.569-1.044-1.025-1.056-1.012s-0.022 0.453-0.022 0.981c0 0.894-0.003 0.962-0.059 1.012-0.050 0.047-0.172 0.053-1.191 0.053s-1.141-0.006-1.191-0.053c-0.056-0.050-0.059-0.119-0.059-1.012 0-1.050-0.006-1.022 0.188-1.078 0.156-0.047 0.156-0.050 0.156-0.688 0-0.334-0.009-0.625-0.019-0.653-0.009-0.025-0.066-0.056-0.125-0.069-0.197-0.037-0.2-0.047-0.2-1.094v-0.947l0.084-0.066c0.081-0.063 0.103-0.066 1.206-0.056 1.069 0.009 1.122 0.012 1.166 0.069zM28.425 11.778c0.034 0.050 0.044 0.191 0.044 0.656 0 0.328-0.012 0.613-0.025 0.631-0.066 0.1-0.166 0.106-1.394 0.106-0.856 0-1.259-0.009-1.313-0.034-0.1-0.047-0.141-0.162-0.119-0.366 0.009-0.119 0-0.181-0.038-0.241l-0.050-0.078h-1.137c-0.628 0-1.159 0.009-1.188 0.019-0.044 0.016-0.050 0.106-0.050 0.672 0 0.613 0.003 0.653 0.059 0.684 0.034 0.016 0.241 0.031 0.459 0.031 0.431 0 0.512-0.028 0.512-0.175 0-0.037 0.038-0.1 0.081-0.134 0.081-0.063 0.119-0.066 1.003-0.066h0.919l0.075 0.078c0.078 0.075 0.078 0.081 0.078 0.656s0 0.581-0.078 0.656l-0.075 0.078h-0.919c-0.884 0-0.922-0.003-1.003-0.066-0.044-0.034-0.081-0.094-0.081-0.128 0-0.037-0.022-0.094-0.053-0.125-0.044-0.050-0.103-0.056-0.462-0.056-0.278 0-0.428 0.012-0.462 0.037-0.041 0.031-0.053 0.097-0.056 0.313-0.003 0.147 0.003 0.284 0.016 0.3 0.009 0.016 0.066 0.041 0.128 0.050 0.2 0.037 0.203 0.053 0.203 1.081 0 0.784-0.006 0.934-0.050 0.994l-0.047 0.069h-1.147c-0.631 0-1.163-0.012-1.181-0.025-0.094-0.063-0.106-0.172-0.106-1.044 0-0.991 0.006-1.019 0.197-1.072 0.066-0.019 0.131-0.053 0.147-0.078 0.047-0.075 0.041-1.197-0.006-1.256-0.022-0.028-0.091-0.066-0.153-0.084-0.181-0.059-0.188-0.097-0.178-1.125l0.009-0.916 0.075-0.059c0.072-0.059 0.163-0.059 3.697-0.053 3.547 0.009 3.625 0.009 3.669 0.069z"></path>
<path fill="#ee3124" style="fill: var(--color1, #ee3124)" d="M1.044 21.063c-0.012 0.044-0.016 0.344-0.006 0.666 0.012 0.547 0.019 0.594 0.094 0.759 0.109 0.241 0.275 0.416 0.5 0.528l0.191 0.094h14.147c12.322 0 14.166-0.006 14.278-0.047 0.203-0.072 0.403-0.225 0.519-0.4 0.166-0.253 0.203-0.45 0.203-1.106v-0.572h-29.906l-0.019 0.078z"></path>
</symbol>



<symbol id="icon-timken" viewBox="0 0 32 32">
<path fill="#ff8300" style="fill: var(--color6, #ff8300)" d="M7.933 19.357v-0.874h-0.207c-0.22-0.013-0.396-0.189-0.408-0.409l-0-0.001v-4.188c0.013-0.225 0.191-0.404 0.414-0.418l0.001-0 0.212-0.001 0.002-0.822h-2.694v0.822h0.199c0.226 0.015 0.405 0.194 0.421 0.418l0 0.001v4.185c-0.016 0.219-0.19 0.392-0.407 0.408l-0.001 0h-0.227v0.877zM28.829 12.644l-2.143 0.001 0.004 0.823 0.203-0.002c0.195 0 0.403 0.228 0.403 0.455l0.004 4.151c-0.009 0.221-0.186 0.398-0.406 0.406l-0.001 0h-0.21v0.874h2.227v-0.874l-0.2 0.001c-0.216-0.010-0.39-0.175-0.414-0.385l-0-0.002 0.001-3.031 1.671 4.291h1.416l0.001-5.48c0.018-0.227 0.206-0.404 0.436-0.404 0 0 0 0 0.001 0h0.18v-0.824h-2.224v0.824h0.217c0.22 0.009 0.397 0.182 0.413 0.4l0 0.001v2.695zM21.355 18.479c-0.212 0-0.241-0.075-0.441-0.338 0 0-1.45-2.047-1.686-2.393 0.155-0.227 1.466-2.128 1.466-2.128 0.053-0.093 0.152-0.155 0.265-0.155 0.005 0 0.011 0 0.016 0l-0.001-0h0.244v-0.82l-2.262-0.002v0.822h0.14c0.006-0.001 0.012-0.001 0.019-0.001 0.055 0 0.104 0.026 0.135 0.067l0 0c0.072 0.090-0.066 0.275-0.102 0.322l-1.127 1.646-0.001-1.632c0.010-0.219 0.186-0.395 0.404-0.403l0.001-0h0.212l-0.003-0.822h-2.733v0.823h0.213c0.215 0.014 0.385 0.187 0.394 0.402l0 0.001v4.199c-0.012 0.222-0.189 0.4-0.41 0.412l-0.001 0-0.21-0.001v0.875h2.767v-0.875h-0.207c-0.23-0.003-0.417-0.183-0.431-0.409l-0-0.001 0.002-1.835c0.107 0.124 1.315 1.93 1.315 1.93 0.154 0.315-0.073 0.315-0.176 0.315h-0.159l-0.003 0.875h2.418l-0.002-0.874zM21.754 19.353h4.485v-1.723l-0.749 0.002 0.001 0.446c-0.016 0.218-0.192 0.391-0.41 0.402l-0.001 0h-1.212l0.001-2.244 0.482 0.001c0.215 0.028 0.383 0.196 0.41 0.408l0 0.002 0.002 0.262 0.734 0.001v-2.092h-0.734l-0.002 0.257c0 0.005 0 0.010 0 0.015 0 0.212-0.172 0.383-0.383 0.383-0.002 0-0.005-0-0.007-0h0l-0.503-0.003-0.001-2.002 1.135-0.002c0.221 0.008 0.398 0.183 0.41 0.402l0 0.001 0.004 0.433h0.733v-1.659h-4.381v0.822h0.202c0.217 0.010 0.392 0.179 0.409 0.393l0 0.002v4.218c-0.031 0.213-0.202 0.378-0.416 0.399l-0.002 0h-0.209zM3.707 19.353v-0.874h-0.281c-0.223-0.001-0.404-0.183-0.404-0.406 0-0.001 0-0.003 0-0.004v0-4.602h0.588c0.227 0 0.41 0.184 0.41 0.41v0 0.584h0.653v-1.816h-4.673l-0.001 1.82 0.654-0.001 0.001-0.584c0-0 0-0 0-0 0-0.226 0.183-0.41 0.41-0.41 0 0 0 0 0 0v0l0.588-0.001-0.002 4.604c0 0.001 0 0.003 0 0.004 0 0.223-0.18 0.403-0.403 0.404h-0.28v0.874zM9.199 13.877c-0.011-0.222-0.188-0.4-0.409-0.41l-0.001-0h-0.208l0.001-0.822h2.154l1.178 4 1.183-4h2.162v0.822h-0.203c-0.223 0.012-0.401 0.189-0.416 0.411l-0 0.001v4.204c0.012 0.218 0.189 0.391 0.408 0.396h0.203v0.874h-2.45l-0.002-0.874h0.126c0.189 0 0.33-0.176 0.33-0.402l0.004-3.001-1.255 4.277h-0.62l-1.21-4.252-0.005 2.978c-0.001 0.011-0.002 0.024-0.002 0.037 0 0.191 0.147 0.348 0.334 0.364l0.001 0h0.125v0.874h-2.055v-0.874l0.21 0.001c0.223-0.008 0.402-0.184 0.414-0.404l0-0.001s0.003-3.971 0.003-4.199z"></path>
</symbol>
<symbol id="icon-cart" viewBox="0 0 33 32">
<path fill="#fff" style="fill: var(--color4, #fff)" d="M24.112 30.667c-0.707 0-1.385-0.281-1.886-0.781s-0.781-1.178-0.781-1.886c0-0.707 0.281-1.385 0.781-1.886s1.178-0.781 1.886-0.781c0.707 0 1.386 0.281 1.886 0.781s0.781 1.178 0.781 1.886-0.281 1.385-0.781 1.886c-0.5 0.5-1.178 0.781-1.886 0.781z"></path>
<path fill="#fff" style="fill: var(--color4, #fff)" d="M3.998 5.333h2.667v8h2.667v-9.333c0-0.354-0.14-0.693-0.391-0.943s-0.589-0.391-0.943-0.391h-4v2.667z"></path>
<path fill="#fff" style="fill: var(--color4, #fff)" d="M27.917 9.333l-2.667 10.667h-5.251v2.667h6.293c0.297 0 0.586-0.099 0.82-0.282s0.401-0.439 0.473-0.727l3.333-13.333c0.049-0.197 0.053-0.402 0.011-0.6s-0.129-0.384-0.253-0.544c-0.125-0.16-0.284-0.289-0.466-0.378s-0.382-0.135-0.585-0.135h-18.293v2.667h16.584z"></path>
<path fill="#fff" style="fill: var(--color4, #fff)" d="M23.333 10.667h-16.667v3.723l1.015 1.72c0.518-0.048 1.039-0.044 1.557 0.012l1.219-2.111 5.462 3.153-1.219 2.112c0.309 0.423 0.573 0.873 0.788 1.342l2.475 0.023 0.021 2.026h2.016l2.667-1.333 4-0.667 2.667-12h-4l-2 2zM16.646 22.177l-0.002-0.215-1.84-0.017c0.025 0.072 0.049 0.144 0.072 0.216l1.771 0.017zM14.079 17.684l0.019-0.032-3.153-1.82-1.017 1.762c-0.916-0.224-1.866-0.244-2.781-0.060l0.148 0.251c0.962-0.219 1.968-0.209 2.935 0.027l1.017-1.762 2.831 1.635z"></path>
<path fill="#fff" style="fill: var(--color4, #fff)" d="M4.18 19.541l-1.054-1.783 3.117-1.758 1.053 1.785c0.962-0.219 1.968-0.209 2.935 0.027l1.017-1.762 3.153 1.82-1.017 1.762c0.697 0.729 1.201 1.597 1.491 2.529l2.072 0.019 0.037 3.576-2.072-0.019c-0.275 0.937-0.769 1.792-1.442 2.498l1.053 1.783-3.116 1.756-1.054-1.783c-0.962 0.218-1.967 0.208-2.934-0.029l-1.018 1.764-3.153-1.82 1.019-1.765c-0.689-0.719-1.2-1.585-1.492-2.527l-2.071-0.021-0.038-3.575 2.071 0.019c0.275-0.936 0.768-1.791 1.442-2.497zM6.997 26.984c0.419 0.263 0.886 0.44 1.373 0.521s0.983 0.066 1.459-0.047 0.923-0.319 1.313-0.608c0.39-0.289 0.716-0.653 0.958-1.072s0.395-0.883 0.45-1.365 0.011-0.972-0.13-1.441c-0.141-0.469-0.375-0.907-0.689-1.287s-0.701-0.697-1.138-0.929c-0.842-0.447-1.82-0.557-2.728-0.307s-1.676 0.84-2.142 1.647-0.593 1.767-0.355 2.678c0.238 0.911 0.822 1.703 1.63 2.209z"></path>
</symbol>

<symbol id="icon-logo" viewBox="0 0 32 32">
<path d="M29.082 0.314h-4.009c-1.237 0-2.24 0.983-2.24 2.195v3.929c0 1.212 1.003 2.195 2.24 2.195h4.009c1.237 0 2.24-0.983 2.24-2.195v-3.929c0-1.212-1.003-2.195-2.24-2.195z"></path>
<path d="M6.73 23.040h-4.318c-1.332 0-2.412 0.983-2.412 2.195v3.929c0 1.213 1.080 2.195 2.412 2.195h4.318c1.332 0 2.412-0.983 2.412-2.195v-3.929c0-1.212-1.080-2.195-2.412-2.195z"></path>
<path d="M6.25 11.582h-4.009c-1.237 0-2.24 0.983-2.24 2.195v3.929c0 1.212 1.003 2.195 2.24 2.195h4.009c1.237 0 2.24-0.983 2.24-2.195v-3.929c0-1.212-1.003-2.195-2.24-2.195z"></path>
<path d="M17.766 22.978h-4.009c-1.237 0-2.24 0.983-2.24 2.195l-0 3.929c0 1.212 1.003 2.195 2.241 2.195h4.009c1.237 0 2.24-0.983 2.24-2.195v-3.929c0-1.212-1.003-2.195-2.24-2.195z"></path>
<path d="M6.25 0.086h-4.009c-1.237 0-2.24 0.983-2.24 2.195v3.929c0 1.212 1.003 2.195 2.24 2.195h4.009c1.237 0 2.24-0.983 2.24-2.195v-3.929c0-1.212-1.003-2.195-2.24-2.195z"></path>
<path d="M18.076 11.697h-4.009c-1.237 0-2.24 0.983-2.24 2.195v3.929c0 1.212 1.003 2.195 2.24 2.195h4.009c1.237 0 2.24-0.983 2.24-2.195v-3.929c0-1.212-1.003-2.195-2.24-2.195z"></path>
<path d="M29.333 22.978h-4.010c-1.237 0-2.24 0.983-2.24 2.195v3.929c0 1.212 1.003 2.195 2.24 2.195h4.009c1.237 0 2.24-0.983 2.24-2.195v-3.929c0-1.212-1.003-2.195-2.24-2.195z"></path>
<path d="M17.591 0.224h-4.009c-1.237 0-2.24 0.983-2.24 2.195v3.929c0 1.212 1.003 2.195 2.24 2.195h4.009c1.237 0 2.24-0.984 2.24-2.196v-3.929c0-1.212-1.003-2.195-2.24-2.195z"></path>
<path d="M29.044 11.926h-4.010c-1.237 0-2.24 0.983-2.24 2.195v3.929c0 1.212 1.003 2.195 2.24 2.195h4.009c1.237 0 2.24-0.983 2.24-2.195v-3.929c0-1.212-1.003-2.195-2.24-2.195z"></path>
</symbol>

<symbol id="icon-customer" viewBox="0 0 32 32">
<path fill="#fff" style="fill: var(--color1, #fff)" d="M28 10.667c1.473 0 2.667 1.194 2.667 2.667v0 5.333c0 1.473-1.194 2.667-2.667 2.667v0h-1.416c-0.686 5.289-5.162 9.333-10.583 9.333-0 0-0.001 0-0.001 0h0v-2.667c4.418 0 8-3.582 8-8v0-8c0-4.418-3.582-8-8-8s-8 3.582-8 8v0 9.333h-4c-1.473 0-2.667-1.194-2.667-2.667v0-5.333c0-1.473 1.194-2.667 2.667-2.667v0h1.416c0.687-5.289 5.163-9.332 10.584-9.332s9.897 4.043 10.578 9.278l0.006 0.054h1.416zM10.347 21.047l1.413-2.261c1.199 0.761 2.659 1.213 4.225 1.213 0.005 0 0.010 0 0.015 0h-0.001c0.004 0 0.009 0 0.015 0 1.566 0 3.026-0.452 4.258-1.233l-0.033 0.019 1.413 2.261c-1.599 1.017-3.548 1.62-5.637 1.62-0.006 0-0.011 0-0.017 0h0.001c-0.005 0-0.010 0-0.016 0-2.089 0-4.038-0.604-5.681-1.646l0.043 0.026z"></path>
</symbol>

<symbol id="icon-price" viewBox="0 0 32 32">
<path fill="#fff" style="fill: var(--color1, #fff)" d="M14.533 2.8l13.2 1.887 1.884 13.2-12.256 12.256c-0.241 0.241-0.575 0.39-0.943 0.39s-0.701-0.149-0.943-0.39l-13.2-13.2c-0.241-0.241-0.39-0.575-0.39-0.943s0.149-0.701 0.39-0.943l12.257-12.257zM18.304 14.115c0.483 0.484 1.15 0.783 1.887 0.783 1.472 0 2.665-1.193 2.665-2.665 0-0.001 0-0.003 0-0.004v0c-0-1.472-1.194-2.666-2.667-2.666s-2.667 1.194-2.667 2.667c0 0.737 0.299 1.403 0.781 1.886v0z"></path>
</symbol>

<symbol id="icon-truck" viewBox="0 0 32 32">
<path fill="#fff" style="fill: var(--color1, #fff)" d="M22.667 10.667h4l4 5.408v7.925h-2.713c-0.334 2.279-2.275 4.008-4.62 4.008s-4.286-1.73-4.617-3.983l-0.003-0.025h-6.76c-0.334 2.279-2.275 4.008-4.62 4.008s-4.286-1.73-4.617-3.983l-0.003-0.025h-1.38v-16c0-0.736 0.597-1.333 1.333-1.333v0h18.667c0.736 0 1.333 0.597 1.333 1.333v0 2.667zM22.667 13.333v4h5.333v-0.38l-2.677-3.62h-2.656z"></path>
</symbol>

</defs>
</svg>
